<?xml version="1.0" standalone="no"?>
<!DOCTYPE svg PUBLIC "-//W3C//DTD SVG 1.1//EN" "http://www.w3.org/Graphics/SVG/1.1/DTD/svg11.dtd" >
<svg xmlns="http://www.w3.org/2000/svg" xmlns:xlink="http://www.w3.org/1999/xlink" version="1.1">
<metadata>
Created by FontForge 20141024 at Thu Jan 22 11:32:50 2015
 By System Administrator
Copyright (c) 1990-2002 ParaType, Inc. All Rights Reserved. ITC Officina Serif is a registered trade mark of International Typeface Corporation.
</metadata>
<defs>
<font id="OfficinaSerifBookSCC" horiz-adv-x="500" >
  <font-face 
    font-family="OfficinaSerifBookSCC"
    font-weight="400"
    font-stretch="normal"
    units-per-em="1000"
    panose-1="0 0 5 0 0 0 0 0 0 0"
    ascent="750"
    descent="-250"
    x-height="542"
    cap-height="685"
    bbox="-78.7701 -250 949 881"
    underline-thickness="50"
    underline-position="-50"
    stemh="62"
    stemv="82"
    unicode-range="U+0020-F6D4"
  />
<missing-glyph horiz-adv-x="233" 
 />
    <glyph glyph-name=".notdef" horiz-adv-x="233" 
 />
    <glyph glyph-name="space" unicode=" " horiz-adv-x="233" 
 />
    <glyph glyph-name="space" unicode="&#xa0;" horiz-adv-x="233" 
 />
    <glyph glyph-name="exclam" unicode="!" horiz-adv-x="333" 
d="M216 672l-22 -394c-1 -11 -2 -13 -14 -13h-29c-11 0 -13 2 -14 13l-23 394v4c0 8 3 10 14 10h74c11 0 14 -2 14 -11v-3zM237 57c0 -39 -32 -71 -70 -71c-40 0 -71 31 -71 71c0 39 32 70 72 70c37 0 69 -32 69 -70z" />
    <glyph glyph-name="quotedbl" unicode="&#x22;" horiz-adv-x="407" 
d="M105 473l-16 242c-1 9 9 9 12 9h58c3 0 13 0 12 -9l-16 -242c-1 -12 -8 -13 -12 -13h-26c-4 0 -11 1 -12 13zM253 473l-16 242c-1 9 9 9 12 9h58c3 0 13 0 12 -9l-16 -242c-1 -12 -8 -13 -12 -13h-26c-4 0 -11 1 -12 13z" />
    <glyph glyph-name="numbersign" unicode="#" 
d="M306 177l21 200h-122l-21 -200h122zM363 112l-18 -178c-1 -10 -2 -14 -12 -14h-39c-5 0 -15 -1 -13 14l18 178h-122l-18 -178c-1 -10 -2 -14 -12 -14h-39c-5 0 -15 -1 -13 14l18 178h-64c-5 0 -8 3 -8 8v49c0 5 3 8 8 8h71l21 200h-70c-5 0 -8 3 -8 8v49c0 5 3 8 8 8h76
l21 201c1 9 2 10 2 11c2 4 6 3 10 3h45c3 0 5 0 7 -2c2 -3 0 -8 0 -12l-21 -201h122l21 201c1 9 2 10 2 11c2 4 6 3 10 3h45c3 0 5 0 7 -2c2 -3 0 -8 0 -12l-21 -201h59c5 0 8 -3 8 -8v-49c0 -5 -3 -8 -8 -8h-65l-21 -200h64c5 0 8 -3 8 -8v-49c0 -5 -3 -8 -8 -8h-71z" />
    <glyph glyph-name="dollar" unicode="$" 
d="M285 590v-227l17 -9c55 -29 137 -77 137 -186c0 -86 -56 -162 -154 -178v-66c0 -11 -6 -12 -12 -12h-30c-6 0 -12 1 -12 12v62c-46 2 -95 12 -135 29c-20 8 -34 16 -35 25v3c0 2 2 7 2 8l17 43c1 3 1 6 8 6h1c4 0 6 -3 16 -8c55 -29 93 -37 126 -39v251l-19 11
c-53 31 -135 72 -135 175c0 87 63 157 154 165v59c0 6 1 12 12 12h30c11 0 12 -6 12 -12v-57c54 -3 97 -19 126 -35c15 -8 12 -15 10 -20l-18 -44c-1 -1 -2 -4 -7 -5h-3c-3 1 -5 2 -15 7c-16 8 -47 26 -93 30zM231 384v204c-39 -6 -72 -34 -72 -91c0 -55 29 -84 66 -109z
M285 283v-226c45 11 72 50 72 100c0 63 -40 107 -67 123z" />
    <glyph glyph-name="percent" unicode="%" horiz-adv-x="759" 
d="M305 495c0 -110 -51 -179 -136 -179c-32 0 -130 11 -130 164c0 107 50 177 137 177c69 0 129 -46 129 -162zM169 370c34 0 70 23 70 119c0 88 -31 114 -64 114s-70 -23 -70 -120c0 -87 30 -113 64 -113zM721 165c0 -110 -51 -179 -136 -179c-32 0 -130 11 -130 164
c0 107 50 177 137 177c69 0 129 -46 129 -162zM585 40c34 0 70 23 70 119c0 88 -31 114 -64 114s-70 -23 -70 -120c0 -87 30 -113 64 -113zM453 657h42c18 0 13 -12 11 -17l-200 -644c-3 -10 -9 -10 -14 -10h-42c-17 0 -14 7 -11 16l199 645c2 5 3 10 15 10z" />
    <glyph glyph-name="ampersand" unicode="&#x26;" horiz-adv-x="611" 
d="M577 33c0 -3 -2 -6 -6 -9l-40 -33c-3 -2 -8 -4 -10 -4c-3 0 -7 2 -11 6l-60 69c-65 -53 -115 -72 -187 -72c-124 0 -206 72 -206 181c0 61 26 111 78 151c15 11 24 18 54 39c-64 74 -87 121 -87 173c0 94 74 162 177 162c91 0 151 -59 151 -147c0 -73 -40 -129 -136 -192
l166 -187c19 32 30 74 30 117v12c0 9 3 12 12 12h49c9 0 12 -4 12 -17c0 -62 -21 -126 -58 -176l69 -79c2 -2 3 -4 3 -6zM356 542c0 54 -35 90 -87 90s-92 -38 -92 -89c0 -41 21 -79 78 -142c74 52 101 90 101 141zM408 111l-180 207c-69 -55 -89 -87 -89 -142
c0 -75 51 -122 131 -122c51 0 93 17 138 57z" />
    <glyph glyph-name="quotesingle" unicode="'" horiz-adv-x="167" 
d="M124 715l-15 -242c-1 -10 -3 -13 -9 -13h-33c-6 0 -8 3 -9 13l-16 242c-1 9 7 9 10 9h62c3 0 11 0 10 -9z" />
    <glyph glyph-name="parenleft" unicode="(" horiz-adv-x="370" 
d="M285 721l26 -16c3 -2 7 -5 7 -11s-6 -12 -10 -17c-15 -19 -28 -38 -44 -64c-94 -155 -99 -312 -99 -368s5 -213 99 -368c16 -26 29 -45 44 -64c4 -5 10 -11 10 -17s-4 -9 -7 -11l-26 -16c-3 -2 -6 -3 -9 -3c-5 0 -9 4 -20 14c-37 35 -77 104 -97 145
c-45 89 -76 200 -76 320c0 157 52 272 80 327c38 74 69 115 93 138c11 10 15 14 20 14c3 0 6 -1 9 -3z" />
    <glyph glyph-name="parenright" unicode=")" horiz-adv-x="370" 
d="M85 -231l-26 16c-3 2 -7 5 -7 11s6 12 10 17c15 19 28 38 44 64c94 155 99 312 99 368s-5 213 -99 368c-16 26 -29 45 -44 64c-4 5 -10 11 -10 17s4 9 7 11l26 16c3 2 6 3 9 3c5 0 9 -4 20 -14c37 -35 77 -104 97 -145c45 -89 76 -200 76 -320c0 -157 -52 -272 -80 -327
c-38 -74 -69 -115 -93 -138c-11 -10 -15 -14 -20 -14c-3 0 -6 1 -9 3z" />
    <glyph glyph-name="asterisk" unicode="*" 
d="M250 479l-64 -103c-2 -3 -4 -5 -8 -5c-2 0 -4 2 -6 4l-35 25c-3 2 -11 7 -5 15l79 93l-118 29c-3 1 -7 2 -7 6c0 2 1 4 2 8l13 41c3 10 9 9 12 8l112 -46l-9 122c0 6 4 9 10 9h48c6 0 10 -3 10 -9l-9 -122l112 46c3 1 9 2 12 -8l13 -41c1 -4 2 -6 2 -8c0 -4 -4 -5 -7 -6
l-118 -29l79 -93c6 -8 -2 -13 -5 -15l-35 -25c-4 -3 -8 -8 -14 1z" />
    <glyph glyph-name="plus" unicode="+" 
d="M285 290h180c11 0 12 -6 12 -12v-48c0 -6 -1 -12 -12 -12h-180v-180c0 -11 -6 -12 -12 -12h-48c-6 0 -12 1 -12 12v180h-179c-6 0 -12 1 -12 12v48c0 11 6 12 12 12h179v178c0 11 6 12 12 12h48c11 0 12 -6 12 -12v-178z" />
    <glyph glyph-name="comma" unicode="," horiz-adv-x="185" 
d="M73 126h83c4 0 11 0 11 -7c0 -2 -1 -4 -4 -10l-115 -211c-3 -5 -4 -7 -6 -8c-1 -1 -3 -1 -4 -1c-3 0 -5 1 -8 2l-26 9c-4 1 -7 2 -7 7c0 3 1 6 2 9l59 199c2 5 4 11 15 11z" />
    <glyph glyph-name="hyphen" unicode="-" horiz-adv-x="352" 
d="M51 230v51c0 6 1 12 12 12h226c11 0 12 -6 12 -12v-51c0 -6 -1 -12 -12 -12h-226c-6 0 -12 1 -12 12z" />
    <glyph glyph-name="hyphen" unicode="&#xad;" horiz-adv-x="352" 
d="M51 230v51c0 6 1 12 12 12h226c11 0 12 -6 12 -12v-51c0 -6 -1 -12 -12 -12h-226c-6 0 -12 1 -12 12z" />
    <glyph glyph-name="period" unicode="." horiz-adv-x="296" 
d="M218 56c0 -38 -32 -70 -70 -70s-70 32 -70 70s32 70 70 70s70 -32 70 -70z" />
    <glyph glyph-name="slash" unicode="/" horiz-adv-x="443" 
d="M378 724h40c10 0 12 -4 12 -8c0 -3 -2 -6 -4 -10l-384 -906c-4 -9 -12 -10 -16 -10h-39c-18 0 -14 9 -12 13l386 910c4 10 13 11 17 11z" />
    <glyph glyph-name="zero" unicode="0" 
d="M456 292c0 -199 -72 -306 -207 -306c-59 0 -101 18 -135 59c-46 56 -69 133 -69 235c0 193 79 306 214 306c127 0 197 -105 197 -294zM375 290c0 150 -41 225 -122 225c-80 0 -127 -84 -127 -229c0 -75 12 -137 36 -178c19 -34 48 -51 88 -51c46 0 77 19 95 58
c20 41 30 103 30 175z" />
    <glyph glyph-name="one" unicode="1" 
d="M425 14c0 -12 -2 -14 -14 -14h-264c-12 0 -14 2 -14 14v38c0 12 2 14 14 14h101v426l-124 -72c-6 -4 -7 -4 -10 -4s-5 2 -9 9l-12 23c-2 4 -3 7 -3 10s1 4 8 9l162 114h50c12 0 14 -2 14 -14v-501h87c12 0 14 -2 14 -14v-38z" />
    <glyph glyph-name="two" unicode="2" 
d="M430 14c0 -12 -2 -14 -14 -14h-335c-10 0 -12 2 -12 14c0 130 50 212 172 282c55 31 71 42 86 61s22 42 22 68c0 56 -36 90 -96 90c-57 0 -88 -27 -114 -97c-2 -7 -5 -10 -10 -10c-2 0 -7 1 -10 2l-41 12c-5 2 -8 5 -8 10c0 15 21 61 40 85c35 46 84 69 147 69
c106 0 173 -60 173 -155c0 -49 -16 -91 -45 -121c-20 -21 -43 -37 -97 -66c-86 -46 -133 -101 -141 -171h269c12 0 14 -2 14 -14v-45z" />
    <glyph glyph-name="three" unicode="3" 
d="M432 110c0 -115 -85 -192 -213 -192c-68 0 -164 26 -164 44c0 3 1 5 3 9l20 45c2 4 4 6 7 6s3 0 23 -9c33 -16 72 -24 110 -24c85 0 133 45 133 124c0 81 -50 123 -146 123h-34c-12 0 -14 2 -14 14v40c0 12 2 14 14 14h33c79 0 129 47 129 120c0 58 -38 96 -97 96
c-35 0 -72 -18 -98 -48c-11 -12 -16 -16 -22 -16c-3 0 -5 1 -8 4l-33 28c-3 2 -5 5 -5 8c0 9 20 30 48 51c35 26 76 39 121 39c101 0 171 -65 171 -160c0 -71 -35 -120 -103 -147c32 -10 47 -17 64 -31c38 -30 61 -81 61 -138z" />
    <glyph glyph-name="four" unicode="4" 
d="M469 87c0 -12 -2 -14 -14 -14h-79v-141c0 -12 -2 -14 -14 -14h-47c-12 0 -14 2 -14 14v141h-258c-10 0 -12 3 -12 14v56l259 430c4 7 7 8 17 8l50 -8c9 -1 12 -4 12 -9c0 -2 -1 -5 -4 -9l-255 -417h191l11 162c1 11 3 13 14 13h36c12 0 14 -2 14 -14v-161h79
c12 0 14 -2 14 -14v-37z" />
    <glyph glyph-name="five" unicode="5" 
d="M433 151c0 -144 -90 -233 -235 -233c-72 0 -130 16 -130 35v7l10 40c1 4 5 8 10 8c3 0 7 -1 11 -2c29 -11 65 -17 104 -17c96 0 149 57 149 159c0 80 -38 127 -104 127c-41 0 -81 -19 -116 -55c-4 -4 -7 -6 -9 -6l-9 1l-35 12c-9 3 -11 4 -11 9v7l32 320c1 11 3 13 14 13
h260c12 0 14 -2 14 -14v-42c0 -12 -2 -14 -14 -14h-209l-22 -203c42 31 76 43 120 43c101 0 170 -79 170 -195z" />
    <glyph glyph-name="six" unicode="6" 
d="M442 224c0 -140 -79 -238 -193 -238c-64 0 -120 34 -152 92c-26 48 -38 103 -38 182c0 240 108 393 277 393c46 0 84 -10 84 -22c0 -2 0 -4 -1 -6l-11 -42c-1 -5 -3 -7 -7 -7l-7 1c-22 8 -38 11 -61 11c-58 0 -96 -21 -132 -70c-29 -40 -45 -81 -54 -145
c41 47 76 65 127 65c102 0 168 -85 168 -214zM361 223c0 95 -39 146 -112 146c-69 0 -109 -52 -109 -144c0 -108 39 -168 110 -168s111 59 111 166z" />
    <glyph glyph-name="seven" unicode="7" 
d="M426 539l-231 -606c-3 -8 -5 -10 -10 -10c-1 0 -2 0 -4 1h-2l-54 8c-8 1 -12 4 -12 8c0 2 0 3 3 9l216 555h-258c-12 0 -14 2 -14 14v44c0 12 2 14 14 14h338c12 0 14 -2 14 -14v-23z" />
    <glyph glyph-name="eight" unicode="8" 
d="M460 167c0 -42 -16 -84 -43 -116c-39 -44 -92 -65 -166 -65c-128 0 -211 70 -211 179c0 51 21 98 57 131c22 19 45 32 89 49c-79 31 -118 80 -118 149c0 41 16 79 46 109c35 34 77 50 138 50c106 0 179 -62 179 -150c0 -71 -34 -118 -113 -156c92 -37 142 -101 142 -180z
M358 495c0 57 -42 94 -106 94c-61 0 -102 -37 -102 -92c0 -49 31 -84 106 -119c71 29 102 64 102 117zM381 162c0 63 -43 112 -130 145c-87 -36 -125 -80 -125 -145c0 -66 52 -110 130 -110c74 0 125 44 125 110z" />
    <glyph glyph-name="nine" unicode="9" 
d="M433 313c0 -247 -95 -395 -256 -395c-28 0 -66 6 -81 13c-7 3 -10 7 -10 13v6l5 41c0 5 4 8 8 8c2 0 5 -1 8 -2c24 -7 47 -11 70 -11c96 0 152 72 175 224c-32 -52 -73 -76 -130 -76c-101 0 -169 89 -169 221c0 137 79 231 195 231c123 0 185 -92 185 -273zM352 363
c0 99 -37 152 -107 152c-68 0 -111 -60 -111 -156c0 -98 40 -157 108 -157c71 0 110 56 110 161z" />
    <glyph glyph-name="colon" unicode=":" horiz-adv-x="296" 
d="M218 56c0 -38 -32 -70 -70 -70s-70 32 -70 70s32 70 70 70s70 -32 70 -70zM218 410c0 -38 -32 -70 -70 -70s-70 32 -70 70s32 70 70 70s70 -32 70 -70z" />
    <glyph glyph-name="semicolon" unicode=";" horiz-adv-x="296" 
d="M233 410c0 -38 -31 -70 -70 -70c-38 0 -70 32 -70 70s32 70 70 70s70 -32 70 -70zM128 126h83c4 0 11 0 11 -7c0 -2 -1 -4 -4 -10l-115 -211c-3 -5 -4 -7 -6 -8c-1 -1 -3 -1 -4 -1c-3 0 -5 1 -8 2l-26 9c-4 1 -7 2 -7 7c0 3 1 6 2 9l59 199c2 5 4 11 15 11z" />
    <glyph glyph-name="less" unicode="&#x3c;" 
d="M22 230v47c0 9 3 13 11 16l404 146c4 2 8 3 12 3c5 0 7 -3 9 -10l16 -46c1 -4 2 -6 2 -8c0 -6 -5 -8 -9 -9l-322 -115v-2l322 -114c3 -1 9 -3 9 -10c0 -1 -1 -3 -2 -7l-16 -46c-2 -6 -3 -10 -9 -10c-3 0 -6 1 -12 3l-404 146c-8 3 -11 7 -11 16z" />
    <glyph glyph-name="equal" unicode="=" 
d="M477 346v-48c0 -11 -6 -12 -12 -12h-431c-6 0 -12 1 -12 12v48c0 6 1 12 12 12h431c11 0 12 -6 12 -12zM477 209v-48c0 -11 -6 -12 -12 -12h-431c-6 0 -12 1 -12 12v48c0 11 6 12 12 12h431c11 0 12 -6 12 -12z" />
    <glyph glyph-name="greater" unicode="&#x3e;" 
d="M478 277v-47c0 -9 -3 -13 -11 -16l-404 -146c-6 -2 -9 -3 -12 -3c-6 0 -7 4 -9 10l-16 46c-1 4 -2 6 -2 7c0 7 6 9 9 10l322 114v2l-322 115c-4 1 -9 3 -9 9c0 2 1 4 2 8l16 46c2 7 4 10 9 10c4 0 8 -1 12 -3l404 -146c8 -3 11 -7 11 -16z" />
    <glyph glyph-name="question" unicode="?" horiz-adv-x="426" 
d="M376 539c0 -88 -49 -142 -153 -170v-90c0 -12 -2 -14 -14 -14h-40c-12 0 -14 2 -14 14v123c0 12 3 16 17 20c41 12 64 20 83 32c26 16 42 47 42 83c0 57 -37 89 -104 89c-33 0 -70 -8 -109 -25c-3 -1 -6 -2 -9 -2c-4 0 -7 3 -9 8l-14 38c-2 5 -2 5 -2 7
c0 19 86 43 151 43c110 0 175 -58 175 -156zM262 57c0 -39 -32 -71 -71 -71s-70 32 -70 71s32 70 72 70c37 0 69 -32 69 -70z" />
    <glyph glyph-name="at" unicode="@" horiz-adv-x="944" 
d="M596 420h48c8 0 6 -6 5 -11l-49 -229c-1 -5 -3 -10 -3 -17v-9c1 -23 5 -50 41 -50c71 0 172 97 172 258c0 145 -97 239 -263 239c-245 0 -411 -193 -411 -418c0 -173 95 -301 312 -301c106 0 195 24 285 66c16 7 19 11 26 12h4c4 -1 6 -5 7 -8l12 -29
c5 -12 8 -19 -48 -42c-101 -41 -191 -57 -280 -57c-232 0 -387 126 -387 356c0 270 212 479 477 479c196 0 331 -110 331 -295c0 -164 -115 -315 -247 -315c-79 0 -84 68 -84 90h-2c-49 -73 -100 -89 -137 -89c-49 0 -86 36 -86 114c0 71 24 160 67 210c34 39 76 56 117 56
c29 0 52 -10 76 -40l10 24c2 5 3 6 7 6zM548 256l17 82c-16 16 -37 34 -67 34c-51 0 -74 -59 -82 -80c-7 -20 -25 -71 -25 -125c0 -17 1 -55 36 -55s100 42 121 144z" />
    <glyph glyph-name="A" unicode="A" horiz-adv-x="603" 
d="M593 53v-41c0 -11 -6 -12 -12 -12h-202c-11 0 -12 6 -12 12v41c0 6 1 12 12 12h62l-39 139h-205l-38 -139h64c11 0 12 -6 12 -12v-41c0 -11 -6 -12 -12 -12h-201c-11 0 -12 6 -12 12v41c0 11 6 12 12 12h49l186 609c4 12 10 11 15 11h59c5 0 11 1 15 -11l185 -609h50
c6 0 12 -1 12 -12zM383 274l-60 221c-11 41 -17 60 -23 95h-2c-5 -25 -13 -68 -21 -95l-61 -221h167z" />
    <glyph glyph-name="B" unicode="B" horiz-adv-x="556" 
d="M52 685h250c139 0 180 -76 180 -163c0 -72 -29 -126 -99 -163c71 -17 123 -73 123 -170c0 -54 -19 -100 -46 -130c-48 -52 -114 -59 -165 -59h-243c-11 0 -12 6 -12 12v41c0 11 6 12 12 12h63v555h-63c-11 0 -12 6 -12 12v41c0 6 1 12 12 12zM197 383h63
c28 0 72 2 102 34c15 16 30 44 30 96c0 19 -4 51 -22 73c-24 28 -56 29 -89 29h-84v-232zM197 70h89c28 0 71 2 102 38c15 17 28 44 28 84s-12 72 -42 97c-29 23 -59 27 -93 27h-84v-246z" />
    <glyph glyph-name="C" unicode="C" horiz-adv-x="481" 
d="M441 167v-104c0 -17 1 -20 -19 -33c-52 -34 -108 -44 -145 -44c-46 0 -120 15 -169 95s-56 192 -56 268c0 80 9 192 60 266c37 54 91 84 167 84c39 0 77 -8 123 -34c36 -20 34 -28 34 -35v-111c0 -6 -1 -12 -12 -12h-44c-11 0 -12 6 -12 12v85l-6 4c-19 13 -56 24 -87 24
c-47 0 -77 -22 -97 -56c-32 -54 -36 -132 -36 -198c0 -103 12 -201 37 -254c27 -56 77 -71 108 -71s58 13 77 23l9 5v86c0 6 1 12 12 12h44c11 0 12 -6 12 -12z" />
    <glyph glyph-name="D" unicode="D" horiz-adv-x="574" 
d="M52 685h227c75 0 120 -23 145 -42c84 -64 98 -193 98 -294c0 -81 -9 -216 -85 -288c-60 -57 -146 -61 -195 -61h-190c-11 0 -12 6 -12 12v41c0 11 6 12 12 12h63v555h-63c-11 0 -12 6 -12 12v41c0 6 1 12 12 12zM197 70h62c75 0 126 29 153 110c16 49 20 108 20 162
c0 84 -6 145 -27 192c-35 76 -103 81 -153 81h-55v-545z" />
    <glyph glyph-name="E" unicode="E" horiz-adv-x="481" 
d="M449 159v-147c0 -11 -6 -12 -12 -12h-385c-11 0 -12 6 -12 12v41c0 11 6 12 12 12h63v555h-63c-11 0 -12 6 -12 12v41c0 6 1 12 12 12h378c11 0 12 -6 12 -12v-138c0 -6 -1 -12 -12 -12h-44c-11 0 -12 6 -12 12v80h-177v-222h197c11 0 12 -6 12 -12v-46
c0 -11 -6 -12 -12 -12h-197v-253h184v89c0 6 1 12 12 12h44c11 0 12 -6 12 -12z" />
    <glyph glyph-name="F" unicode="F" horiz-adv-x="463" 
d="M197 65h74c11 0 12 -6 12 -12v-41c0 -11 -6 -12 -12 -12h-219c-11 0 -12 6 -12 12v41c0 11 6 12 12 12h63v555h-63c-11 0 -12 6 -12 12v41c0 6 1 12 12 12h378c11 0 12 -6 12 -12v-138c0 -6 -1 -12 -12 -12h-44c-11 0 -12 6 -12 12v80h-177v-229h197c11 0 12 -6 12 -12
v-46c0 -11 -6 -12 -12 -12h-197v-251z" />
    <glyph glyph-name="G" unicode="G" horiz-adv-x="554" 
d="M468 282v-217c0 -34 1 -35 -29 -50c-42 -20 -100 -29 -143 -29c-114 0 -164 61 -188 101c-48 79 -56 175 -56 262c0 65 7 179 60 259c49 74 121 91 180 91c72 0 126 -33 151 -50c11 -7 10 -13 10 -19v-111c0 -6 -1 -12 -12 -12h-44c-6 0 -12 1 -12 12v85l-6 3
c-12 6 -47 25 -88 25c-31 0 -73 -10 -103 -52c-44 -63 -46 -173 -46 -221c0 -62 3 -160 39 -232c14 -27 43 -74 117 -74c28 0 64 7 88 19v210h-80c-6 0 -12 1 -12 12v41c0 6 1 12 12 12h218c6 0 12 -1 12 -12v-41c0 -11 -6 -12 -12 -12h-56z" />
    <glyph glyph-name="H" unicode="H" horiz-adv-x="648" 
d="M609 53v-41c0 -11 -6 -12 -12 -12h-208c-6 0 -12 1 -12 12v41c0 6 1 12 12 12h63v256h-256v-256h63c11 0 12 -6 12 -12v-41c0 -11 -6 -12 -12 -12h-208c-6 0 -12 1 -12 12v41c0 11 6 12 12 12h63v555h-63c-11 0 -12 6 -12 12v41c0 6 1 12 12 12h208c11 0 12 -6 12 -12
v-41c0 -6 -1 -12 -12 -12h-63v-229h256v229h-63c-11 0 -12 6 -12 12v41c0 6 1 12 12 12h208c6 0 12 -1 12 -12v-41c0 -11 -6 -12 -12 -12h-63v-555h63c6 0 12 -1 12 -12z" />
    <glyph glyph-name="I" unicode="I" horiz-adv-x="333" 
d="M208 65h91c11 0 12 -6 12 -12v-41c0 -6 -1 -12 -12 -12h-264c-11 0 -12 6 -12 12v41c0 11 6 12 12 12h91v555h-91c-11 0 -12 6 -12 12v41c0 6 1 12 12 12h264c11 0 12 -6 12 -12v-41c0 -6 -1 -12 -12 -12h-91v-555z" />
    <glyph glyph-name="J" unicode="J" horiz-adv-x="444" 
d="M366 673v-504c0 -39 -6 -89 -43 -130c-30 -33 -75 -53 -141 -53c-49 0 -101 13 -136 57c-27 34 -40 84 -40 123v18c0 11 6 12 12 12h52c11 0 12 -6 12 -12v-6c0 -30 3 -65 24 -92c18 -23 43 -33 77 -33c38 0 62 13 76 29c24 27 25 68 25 87v446h-175c-11 0 -12 6 -12 12
v46c0 6 1 12 12 12h245c11 0 12 -6 12 -12z" />
    <glyph glyph-name="K" unicode="K" horiz-adv-x="574" 
d="M560 53v-41c0 -11 -6 -12 -12 -12h-191c-6 0 -12 1 -12 12v41c0 6 1 12 12 12h48l-207 264h-2v-264h63c11 0 12 -6 12 -12v-41c0 -11 -6 -12 -12 -12h-208c-6 0 -12 1 -12 12v41c0 11 6 12 12 12h63v555h-63c-11 0 -12 6 -12 12v41c0 6 1 12 12 12h208c11 0 12 -6 12 -12
v-41c0 -6 -1 -12 -12 -12h-63v-279h2l210 279h-49c-11 0 -12 6 -12 12v41c0 6 1 12 12 12h183c11 0 12 -6 12 -12v-41c0 -6 -1 -12 -12 -12h-45l-218 -280l220 -275h49c6 0 12 -1 12 -12z" />
    <glyph glyph-name="L" unicode="L" horiz-adv-x="481" 
d="M377 70l35 98c3 8 8 10 16 7l46 -17c11 -4 8 -10 6 -17l-47 -130c-4 -11 -10 -11 -15 -11h-366c-11 0 -12 6 -12 12v41c0 11 6 12 12 12h63v555h-63c-11 0 -12 6 -12 12v41c0 6 1 12 12 12h208c11 0 12 -6 12 -12v-41c0 -6 -1 -12 -12 -12h-63v-550h180z" />
    <glyph glyph-name="M" unicode="M" horiz-adv-x="708" 
d="M531 65l-13 430v95h-2c-3 -39 -4 -47 -12 -71l-120 -348c-1 -4 -3 -11 -15 -11h-30c-12 0 -14 7 -15 11l-120 348c-8 24 -9 32 -12 71h-2v-95l-13 -430h70c11 0 12 -6 12 -12v-41c0 -11 -6 -12 -12 -12h-205c-6 0 -12 1 -12 12v41c0 11 6 12 12 12h56l31 555h-70
c-11 0 -12 6 -12 12v41c0 6 1 12 12 12h148c9 0 12 -8 13 -10l118 -345c7 -21 10 -30 15 -62h2c5 32 8 41 15 62l118 345c1 2 4 10 13 10h148c11 0 12 -6 12 -12v-41c0 -11 -6 -12 -12 -12h-70l31 -555h56c6 0 12 -1 12 -12v-41c0 -11 -6 -12 -12 -12h-205
c-6 0 -12 1 -12 12v41c0 6 1 12 12 12h70z" />
    <glyph glyph-name="N" unicode="N" horiz-adv-x="611" 
d="M515 620v-608c0 -6 -1 -12 -12 -12h-55c-10 0 -14 5 -16 10l-230 494c-10 21 -14 28 -27 87l-2 -2c5 -28 10 -65 10 -89v-435h65c11 0 12 -6 12 -12v-41c0 -6 -1 -12 -12 -12h-201c-6 0 -12 1 -12 12v41c0 11 6 12 12 12h63v555h-63c-11 0 -12 6 -12 12v41
c0 9 6 12 12 12h140c4 0 10 1 15 -9l221 -466c10 -21 14 -39 17 -51l7 -26l2 2c-4 28 -7 39 -7 49v436h-65c-11 0 -12 6 -12 12v41c0 6 1 12 12 12h202c6 0 12 -1 12 -12v-41c0 -11 -6 -12 -12 -12h-64z" />
    <glyph glyph-name="O" unicode="O" horiz-adv-x="556" 
d="M504 343c0 -307 -136 -357 -226 -357c-94 0 -226 51 -226 357c0 80 4 356 226 356c91 0 226 -50 226 -356zM278 53c142 0 136 197 136 290c0 135 -9 289 -136 289c-140 0 -136 -197 -136 -289c0 -93 -6 -290 136 -290z" />
    <glyph glyph-name="P" unicode="P" horiz-adv-x="505" 
d="M283 53v-41c0 -11 -6 -12 -12 -12h-219c-11 0 -12 6 -12 12v41c0 11 6 12 12 12h63v555h-63c-11 0 -12 6 -12 12v41c0 6 1 12 12 12h248c32 0 93 -4 136 -44c41 -38 49 -92 49 -138c0 -88 -31 -138 -60 -164c-28 -25 -76 -50 -156 -50h-72v-224h74c11 0 12 -6 12 -12z
M197 359h65c37 0 81 1 112 39c21 26 29 67 29 101c0 48 -14 75 -30 90c-28 26 -72 26 -99 26h-77v-256z" />
    <glyph glyph-name="Q" unicode="Q" horiz-adv-x="556" 
d="M543 -31l-53 -36c-9 -6 -18 -2 -27 4c-27 17 -53 41 -86 75c-37 -20 -67 -26 -98 -26c-202 0 -227 213 -227 355c0 308 137 358 231 358c215 0 220 -268 220 -356c0 -180 -42 -241 -66 -276l-2 -3c36 -31 55 -47 95 -71c8 -5 17 -8 17 -17c0 -2 -2 -5 -4 -7zM277 53
c124 0 136 153 136 287c0 138 -14 292 -134 292c-125 0 -137 -154 -137 -287c0 -137 14 -292 135 -292z" />
    <glyph glyph-name="R" unicode="R" horiz-adv-x="556" 
d="M555 53v-41c0 -11 -6 -12 -12 -12h-98c-6 0 -12 0 -18 11l-158 301h-72v-247h64c11 0 12 -6 12 -12v-41c0 -11 -6 -12 -12 -12h-209c-11 0 -12 6 -12 12v41c0 11 6 12 12 12h63v555h-63c-11 0 -12 6 -12 12v41c0 6 1 12 12 12h243c153 0 190 -92 190 -176
c0 -70 -26 -111 -47 -135c-25 -29 -53 -46 -85 -55l141 -254h49c6 0 12 -1 12 -12zM197 377h65c36 0 79 1 110 32c24 24 31 56 31 85c0 26 -1 67 -30 94c-30 27 -75 27 -102 27h-74v-238z" />
    <glyph glyph-name="S" unicode="S" horiz-adv-x="480" 
d="M353 525v81l-7 3c-36 16 -51 23 -92 23c-66 0 -106 -43 -106 -103c0 -50 27 -78 60 -100c32 -21 62 -34 96 -53c74 -42 136 -98 136 -194c0 -97 -67 -196 -212 -196c-67 0 -147 26 -176 44c-5 3 -10 7 -10 23v116c0 11 6 12 12 12h44c11 0 12 -6 12 -12v-82l5 -2
c25 -10 66 -32 116 -32c86 0 119 62 119 119c0 74 -50 104 -106 136c-45 26 -77 43 -106 64c-41 30 -80 71 -80 148c0 79 45 120 64 135c39 30 85 44 135 44c58 0 114 -17 144 -34c17 -9 20 -12 20 -30v-110c0 -6 -1 -12 -12 -12h-44c-11 0 -12 6 -12 12z" />
    <glyph glyph-name="T" unicode="T" horiz-adv-x="480" 
d="M364 53v-41c0 -6 -1 -12 -12 -12h-224c-11 0 -12 6 -12 12v41c0 6 1 12 12 12h71v550h-106v-113c0 -6 -1 -12 -12 -12h-44c-6 0 -12 1 -12 12v171c0 6 1 12 12 12h406c11 0 12 -6 12 -12v-171c0 -12 -6 -12 -11 -12h-46c-6 0 -11 0 -11 12v113h-106v-550h71
c11 0 12 -6 12 -12z" />
    <glyph glyph-name="U" unicode="U" horiz-adv-x="629" 
d="M528 620v-436c0 -51 -9 -99 -48 -139c-47 -48 -110 -59 -170 -59c-53 0 -124 9 -167 59c-34 39 -42 91 -42 139v436h-64c-11 0 -12 6 -12 12v41c0 6 1 12 12 12h210c11 0 12 -6 12 -12v-41c0 -6 -1 -12 -12 -12h-64v-434c0 -32 2 -68 25 -97c25 -31 64 -36 101 -36
c38 0 75 5 106 37c25 26 31 56 31 96v434h-64c-6 0 -12 1 -12 12v41c0 6 1 12 12 12h210c6 0 12 -1 12 -12v-41c0 -6 -1 -12 -12 -12h-64z" />
    <glyph glyph-name="V" unicode="V" horiz-adv-x="532" 
d="M482 620l-165 -609c-3 -13 -10 -11 -15 -11h-70c-5 0 -12 -2 -15 11l-163 609h-41c-11 0 -12 6 -12 12v41c0 6 1 12 12 12h187c11 0 12 -6 12 -12v-41c0 -6 -1 -12 -12 -12h-59l111 -466c3 -14 12 -66 14 -80h2c7 50 12 66 15 78l115 468h-54c-11 0 -12 6 -12 12v42
c0 6 0 11 12 11h175c11 0 12 -6 12 -12v-41c0 -6 -1 -12 -12 -12h-37z" />
    <glyph glyph-name="W" unicode="W" horiz-adv-x="749" 
d="M145 620l76 -433c4 -22 5 -54 6 -71l2 -36h2l2 30c1 13 3 50 10 83l96 480c3 13 6 12 12 12h58c5 0 10 1 12 -12l83 -494c3 -17 8 -51 9 -80l1 -23h2l1 33c0 16 1 46 6 71l81 440h-62c-6 0 -12 1 -12 12v41c0 6 1 12 12 12h185c11 0 12 -6 12 -12v-41
c0 -11 -6 -12 -12 -12h-43l-128 -609c-2 -9 -3 -11 -10 -11h-75c-7 0 -8 1 -10 12l-84 546h-2l-104 -546c-2 -10 -2 -12 -10 -12h-71c-8 0 -8 2 -10 12l-116 608h-42c-11 0 -12 6 -12 12v41c0 6 1 12 12 12h187c11 0 12 -6 12 -12v-41c0 -6 -1 -12 -12 -12h-64z" />
    <glyph glyph-name="X" unicode="X" horiz-adv-x="556" 
d="M543 53v-41c0 -11 -6 -12 -12 -12h-192c-11 0 -12 6 -12 12v41c0 6 1 12 12 12h54l-95 179c-11 21 -6 12 -21 47l-20 -46l-95 -180h53c11 0 12 -6 12 -12v-41c0 -6 -1 -12 -12 -12h-190c-11 0 -12 6 -12 12v41c0 11 6 12 12 12h47l158 292l-144 263h-46
c-11 0 -12 6 -12 12v41c0 6 1 12 12 12h192c11 0 12 -6 12 -12v-41c0 -6 -1 -12 -12 -12h-56l78 -143l25 -52c11 28 20 44 26 56l74 139h-47c-11 0 -12 6 -12 12v41c0 6 1 12 12 12h181c11 0 12 -6 12 -12v-41c0 -11 -6 -12 -12 -12h-45l-146 -260l163 -295h46
c6 0 12 -1 12 -12z" />
    <glyph glyph-name="Y" unicode="Y" horiz-adv-x="541" 
d="M394 53v-41c0 -6 -1 -12 -12 -12h-222c-11 0 -12 6 -12 12v41c0 11 6 12 12 12h70v224l-176 331h-37c-11 0 -12 6 -12 12v41c0 6 1 12 12 12h192c11 0 12 -6 12 -12v-41c0 -6 -1 -12 -12 -12h-59l99 -202c5 -11 6 -12 11 -21c4 -8 7 -15 11 -23c1 -3 3 -5 4 -8l23 52
l95 202h-61c-11 0 -12 6 -12 12v41c0 6 1 12 12 12h192c11 0 12 -6 12 -12v-41c0 -11 -6 -12 -12 -12h-42l-170 -329v-226h70c11 0 12 -6 12 -12z" />
    <glyph glyph-name="Z" unicode="Z" horiz-adv-x="481" 
d="M376 70l29 82c4 12 12 8 20 5l42 -15c5 -2 8 -5 8 -9c0 -2 0 -4 -3 -11l-40 -110c-4 -12 -13 -12 -16 -12h-362c-11 0 -12 6 -12 12v54l294 549h-201v-75c0 -6 -1 -12 -12 -12h-44c-11 0 -12 6 -12 12v133c0 6 1 12 12 12h341c11 0 12 -6 12 -12v-50l-296 -553h240z" />
    <glyph glyph-name="bracketleft" unicode="[" horiz-adv-x="370" 
d="M316 -152v-38c0 -11 -6 -12 -12 -12h-176c-6 0 -12 1 -12 12v895c0 5 0 12 13 12h175c6 0 12 -1 12 -12v-38c0 -6 -1 -12 -12 -12h-112v-795h112c6 0 12 -1 12 -12z" />
    <glyph glyph-name="backslash" unicode="\" horiz-adv-x="499" 
d="M69 724h40c4 0 13 -1 17 -11l386 -906c2 -6 3 -8 3 -10c0 -3 -4 -7 -12 -7h-40c-6 0 -12 1 -16 10l-386 906c-1 3 -3 7 -3 10c0 6 5 8 11 8z" />
    <glyph glyph-name="bracketright" unicode="]" horiz-adv-x="370" 
d="M54 -190v38c0 11 6 12 12 12h112v795h-112c-11 0 -12 6 -12 12v38c0 6 1 12 12 12h175c13 0 13 -7 13 -12v-895c0 -11 -6 -12 -12 -12h-176c-6 0 -12 1 -12 12z" />
    <glyph glyph-name="asciicircum" unicode="^" 
d="M223 685h55c5 0 10 -2 13 -8l143 -319c4 -9 5 -11 5 -13c0 -5 -6 -7 -10 -8l-48 -14c-3 -1 -11 -3 -15 6l-116 258l-115 -258c-2 -6 -7 -7 -10 -7c-2 0 -3 0 -5 1l-48 14c-4 1 -10 3 -10 8c0 2 1 4 5 13l143 319c2 4 3 8 13 8z" />
    <glyph glyph-name="underscore" unicode="_" 
d="M0 -125v50h500v-50h-500z" />
    <glyph glyph-name="grave" unicode="`" horiz-adv-x="501" 
d="M306 600c0 -2 -1 -3 -5 -9l-12 -17c-2 -4 -4 -5 -7 -5s-6 1 -10 3l-163 85c-7 4 -9 6 -9 10c0 2 -1 2 4 9l29 42c4 6 7 8 10 8c2 0 6 -2 10 -5l145 -111c7 -5 8 -6 8 -10z" />
    <glyph glyph-name="a" unicode="a" horiz-adv-x="527" 
d="M517 12c0 -7 -5 -12 -13 -12h-175c-8 0 -12 4 -12 12v38c0 8 3 13 12 13h48l-29 95h-173l-30 -95h51c8 0 13 -5 13 -13v-38c0 -8 -5 -12 -13 -12h-174c-9 0 -12 5 -12 12v38c0 8 3 13 12 13h42l158 468c3 9 5 11 15 11h52c11 0 12 -2 15 -11l158 -468h42
c8 0 13 -5 13 -13v-38zM327 224l-48 161c-9 30 -14 49 -18 66c-5 -20 -10 -43 -17 -65l-49 -162h132z" />
    <glyph glyph-name="b" unicode="b" horiz-adv-x="493" 
d="M448 151c0 -41 -14 -76 -38 -102c-46 -50 -110 -49 -172 -49h-185c-9 0 -12 5 -12 12v38c0 8 3 13 12 13h52v415h-52c-9 0 -12 6 -12 14v38c0 8 3 12 12 12h200c72 0 106 -8 135 -33c25 -22 40 -59 40 -97c0 -57 -28 -103 -80 -128c26 -7 39 -13 54 -26
c30 -25 46 -64 46 -107zM345 400c0 55 -24 78 -93 78h-70v-170h52c78 0 111 24 111 92zM366 155c0 62 -38 90 -114 90h-70v-181h74c74 0 110 31 110 91z" />
    <glyph glyph-name="c" unicode="c" horiz-adv-x="434" 
d="M392 47c0 -9 -2 -13 -9 -18c-34 -24 -85 -39 -130 -39c-133 0 -201 98 -201 286c0 181 66 276 195 276c46 0 101 -16 133 -39c7 -5 8 -9 8 -17v-87c0 -8 -3 -13 -12 -13h-39c-8 0 -14 5 -14 13v62c-28 13 -50 18 -75 18c-80 0 -114 -54 -114 -206
c0 -159 42 -230 120 -230c25 0 45 4 73 18v63c0 8 6 12 14 12h39c8 0 12 -5 12 -12v-87z" />
    <glyph glyph-name="d" unicode="d" horiz-adv-x="513" 
d="M461 276c0 -193 -71 -276 -243 -276h-165c-9 0 -12 5 -12 12v38c0 8 3 13 12 13h52v415h-52c-9 0 -12 6 -12 14v38c0 8 3 12 12 12h175c87 0 130 -12 164 -47c47 -48 69 -117 69 -219zM380 277c0 87 -12 139 -43 169c-28 27 -71 28 -111 28h-44v-407h50
c106 0 148 53 148 210z" />
    <glyph glyph-name="e" unicode="e" horiz-adv-x="434" 
d="M399 13c0 -11 -4 -13 -15 -13h-331c-9 0 -12 5 -12 12v38c0 8 3 13 12 13h52v415h-52c-9 0 -12 6 -12 14v38c0 8 3 12 12 12h326c12 0 14 -4 14 -15v-105c0 -8 -4 -13 -12 -13h-39c-8 0 -14 4 -14 13v52h-146v-160h166c12 0 14 -4 14 -15v-37c0 -11 -3 -13 -14 -13h-166
v-182h153v60c0 8 4 13 12 13h39c9 0 13 -5 13 -13v-114z" />
    <glyph glyph-name="f" unicode="f" horiz-adv-x="419" 
d="M394 422c0 -8 -5 -13 -13 -13h-39c-7 0 -13 5 -13 13v52h-147v-166h166c12 0 14 -4 14 -14v-36c0 -11 -3 -14 -14 -14h-166v-181h61c9 0 13 -5 13 -13v-38c0 -7 -4 -12 -13 -12h-190c-9 0 -12 5 -12 12v38c0 8 3 13 12 13h52v415h-52c-9 0 -12 6 -12 14v38
c0 8 3 12 12 12h326c12 0 15 -4 15 -15v-105z" />
    <glyph glyph-name="g" unicode="g" horiz-adv-x="484" 
d="M474 230c0 -8 -3 -13 -12 -13h-47v-182c0 -8 -2 -10 -9 -14c-34 -19 -91 -31 -144 -31c-137 0 -210 97 -210 275c0 184 73 287 209 287c44 0 97 -15 132 -38c6 -4 10 -7 10 -17v-90c0 -8 -7 -12 -14 -12h-38c-7 0 -13 4 -13 12v65c-24 10 -52 17 -77 17
c-85 0 -127 -62 -127 -209c0 -167 42 -227 141 -227c23 0 42 4 64 11v153h-64c-12 0 -15 2 -15 14v35c0 11 3 15 15 15h187c9 0 12 -5 12 -13v-38z" />
    <glyph glyph-name="h" unicode="h" horiz-adv-x="578" 
d="M537 12c0 -8 -5 -12 -13 -12h-180c-8 0 -14 4 -14 12v38c0 8 6 13 14 13h52v186h-214v-186h52c8 0 13 -5 13 -13v-38c0 -9 -5 -12 -13 -12h-181c-9 0 -12 5 -12 12v38c0 8 3 13 12 13h52v415h-52c-9 0 -12 6 -12 14v38c0 8 3 12 12 12h181c8 0 13 -4 13 -12v-38
c0 -8 -4 -14 -13 -14h-52v-164h214v164h-52c-9 0 -14 6 -14 14v38c0 8 6 12 14 12h180c9 0 13 -4 13 -12v-38c0 -8 -4 -14 -13 -14h-52v-415h52c9 0 13 -5 13 -13v-38z" />
    <glyph glyph-name="i" unicode="i" horiz-adv-x="322" 
d="M287 13c0 -11 -3 -13 -15 -13h-222c-12 0 -15 2 -15 13v36c0 11 3 14 15 14h73v415h-73c-13 0 -15 4 -15 15v35c0 11 3 14 15 14h222c12 0 15 -2 15 -14v-35c0 -11 -3 -15 -15 -15h-72v-415h72c12 0 15 -2 15 -14v-36z" />
    <glyph glyph-name="j" unicode="j" horiz-adv-x="403" 
d="M328 136c0 -94 -59 -146 -161 -146c-99 0 -156 54 -156 151c0 13 1 18 11 18h52c12 0 9 -8 9 -15c0 -64 29 -91 84 -91c64 0 84 29 84 83v340h-146c-12 0 -15 3 -15 14v38c0 12 3 14 15 14h208c12 0 15 -2 15 -14v-392z" />
    <glyph glyph-name="k" unicode="k" horiz-adv-x="505" 
d="M495 12c0 -8 -6 -12 -14 -12h-164c-8 0 -13 4 -13 12v38c0 7 4 13 13 13h29l-164 186v-186h49c8 0 12 -5 12 -13v-38c0 -8 -4 -12 -12 -12h-178c-9 0 -12 5 -12 12v38c0 8 3 13 12 13h52v415h-52c-9 0 -12 6 -12 14v38c0 8 3 12 12 12h178c9 0 12 -4 12 -12v-38
c0 -8 -4 -14 -12 -14h-49v-197l167 197h-31c-8 0 -13 6 -13 14v38c0 8 5 12 13 12h158c8 0 13 -4 13 -12v-38c0 -8 -4 -14 -13 -14h-42l-180 -209l182 -206h45c8 0 14 -4 14 -13v-38z" />
    <glyph glyph-name="l" unicode="l" horiz-adv-x="424" 
d="M424 114l-39 -104c-3 -7 -8 -10 -16 -10h-316c-9 0 -12 5 -12 12v38c0 8 3 13 12 13h52v415h-52c-9 0 -12 6 -12 14v38c0 8 3 12 12 12h181c8 0 13 -4 13 -12v-38c0 -8 -4 -14 -13 -14h-52v-411h151l26 68c3 7 10 10 17 8l41 -14c10 -3 10 -7 7 -15z" />
    <glyph glyph-name="m" unicode="m" horiz-adv-x="635" 
d="M598 12c0 -7 -4 -12 -13 -12h-177c-8 0 -13 4 -13 12v38c0 8 5 13 13 13h56l-11 326c0 5 -1 22 -1 38c-2 -11 -11 -35 -13 -41l-95 -250c-3 -9 -7 -11 -17 -11h-25c-10 0 -12 3 -15 11l-92 250c-2 6 -11 32 -14 44c0 -12 -1 -35 -1 -41l-10 -326h57c8 0 13 -5 13 -13v-38
c0 -8 -5 -12 -13 -12h-177c-9 0 -13 5 -13 12v38c0 8 4 13 13 13h45l27 415h-57c-8 0 -14 6 -14 14v38c0 9 6 12 14 12h126c11 0 12 -2 15 -11l99 -259c5 -13 9 -32 12 -45c3 13 9 36 12 45l100 259c3 8 4 11 14 11h127c8 0 13 -4 13 -12v-38c0 -8 -4 -14 -13 -14h-55
l27 -415h43c8 0 13 -5 13 -13v-38z" />
    <glyph glyph-name="n" unicode="n" horiz-adv-x="557" 
d="M526 492c0 -8 -6 -14 -14 -14h-51v-465c0 -11 -4 -13 -15 -13h-46c-7 0 -13 3 -16 9l-188 365c-7 13 -19 38 -23 48c1 -13 2 -38 2 -48v-311h52c8 0 13 -5 13 -13v-38c0 -8 -5 -12 -13 -12h-172c-8 0 -14 4 -14 12v38c0 8 7 13 14 13h51v415h-51c-8 0 -14 6 -14 14v38
c0 8 6 12 14 12h121c7 0 12 -2 15 -9l180 -344c7 -13 17 -35 23 -50c-1 14 -1 40 -1 50v289h-52c-9 0 -13 6 -13 14v38c0 8 5 12 13 12h171c8 0 14 -3 14 -12v-38z" />
    <glyph glyph-name="o" unicode="o" horiz-adv-x="516" 
d="M446 271c0 -182 -69 -281 -201 -281c-127 0 -193 96 -193 279c0 185 68 283 201 283c128 0 193 -96 193 -281zM362 269c0 76 -10 220 -111 220c-77 0 -117 -58 -117 -216c0 -79 8 -220 114 -220c75 0 114 56 114 216z" />
    <glyph glyph-name="p" unicode="p" horiz-adv-x="450" 
d="M430 396c0 -49 -15 -89 -43 -119c-40 -43 -90 -50 -147 -50h-58v-164h61c9 0 13 -5 13 -13v-38c0 -7 -4 -12 -13 -12h-190c-9 0 -12 5 -12 12v38c0 8 3 13 12 13h52v415h-52c-9 0 -12 6 -12 14v38c0 8 3 12 12 12h200c66 0 99 -7 126 -28c34 -27 51 -66 51 -118zM352 394
c0 32 -6 50 -21 62c-16 13 -42 20 -84 20h-65v-184h53c38 0 70 3 89 23c18 19 28 45 28 79z" />
    <glyph glyph-name="q" unicode="q" horiz-adv-x="498" 
d="M476 -4c9 -5 8 -12 -1 -19l-40 -31c-3 -2 -6 -3 -9 -3c-15 0 -57 32 -90 65c-35 -16 -52 -19 -91 -19c-128 0 -193 97 -193 280c0 185 68 284 202 284c129 0 192 -97 192 -283c0 -97 -16 -164 -56 -217c20 -18 50 -37 86 -57zM362 269c0 81 -11 138 -33 178
c-16 29 -40 41 -78 41c-74 0 -117 -57 -117 -215c0 -79 15 -138 37 -178c16 -29 40 -42 78 -42c74 0 113 57 113 216z" />
    <glyph glyph-name="r" unicode="r" 
d="M490 12c0 -7 -4 -12 -12 -12h-85c-8 0 -14 3 -18 10l-135 234h-58v-181h52c8 0 13 -5 13 -13v-38c0 -9 -5 -12 -13 -12h-181c-9 0 -12 5 -12 12v38c0 8 3 13 12 13h52v415h-52c-9 0 -12 6 -12 14v38c0 8 3 12 12 12h200c66 0 97 -6 125 -26c32 -23 50 -64 50 -111
c0 -76 -39 -130 -110 -154l116 -188h44c8 0 12 -5 12 -13v-38zM350 400c0 55 -26 78 -102 78h-66v-176h64c70 0 104 30 104 98z" />
    <glyph glyph-name="s" unicode="s" horiz-adv-x="434" 
d="M391 146c0 -93 -75 -156 -186 -156c-44 0 -104 12 -146 31c-12 6 -16 10 -16 23v91c0 8 4 12 13 12h39c9 0 13 -4 13 -12v-59c36 -12 71 -18 100 -18c57 0 101 30 101 81c0 41 -11 64 -75 94l-48 23c-63 30 -128 67 -128 150c0 85 71 146 173 146c46 0 101 -12 134 -31
c7 -4 10 -9 10 -18v-90c0 -7 -4 -12 -13 -12h-39c-9 0 -12 5 -12 12v59c-26 8 -55 12 -83 12c-57 0 -89 -26 -89 -71c0 -38 14 -59 81 -90l48 -22c65 -30 123 -71 123 -155z" />
    <glyph glyph-name="t" unicode="t" horiz-adv-x="407" 
d="M392 395c0 -9 -6 -11 -14 -11h-38c-8 0 -14 2 -14 11v83h-84v-415h57c8 0 13 -5 13 -13v-38c0 -8 -5 -12 -13 -12h-192c-8 0 -13 4 -13 12v38c0 8 5 13 13 13h58v415h-85v-83c0 -8 -5 -11 -12 -11h-39c-8 0 -14 2 -14 11v133c0 12 4 14 16 14h346c11 0 15 -5 15 -15v-132
z" />
    <glyph glyph-name="u" unicode="u" horiz-adv-x="561" 
d="M530 492c0 -8 -3 -14 -12 -14h-53v-331c0 -103 -66 -157 -189 -157c-122 0 -180 51 -180 157v331h-52c-9 0 -13 6 -13 14v38c0 8 4 12 13 12h180c9 0 13 -4 13 -12v-38c0 -8 -4 -14 -13 -14h-52v-327c0 -73 29 -98 106 -98c79 0 114 29 114 98v327h-52c-9 0 -13 6 -13 14
v38c0 8 5 12 13 12h178c9 0 12 -4 12 -12v-38z" />
    <glyph glyph-name="v" unicode="v" horiz-adv-x="461" 
d="M461 492c0 -8 -3 -14 -12 -14h-32l-139 -467c-2 -8 -5 -11 -15 -11h-62c-10 0 -12 2 -15 11l-137 467h-36c-8 0 -13 6 -13 14v38c0 8 5 12 13 12h162c9 0 12 -4 12 -12v-38c0 -8 -3 -14 -12 -14h-46l89 -343c4 -15 11 -42 14 -58c4 18 9 41 13 56l94 345h-41
c-8 0 -13 6 -13 14v38c0 8 5 12 13 12h151c9 0 12 -4 12 -12v-38z" />
    <glyph glyph-name="w" unicode="w" horiz-adv-x="633" 
d="M633 492c0 -8 -5 -14 -13 -14h-36l-108 -466c-2 -10 -6 -12 -16 -12h-57c-11 0 -14 1 -16 12l-70 412l-85 -412c-2 -9 -5 -12 -15 -12h-56c-10 0 -14 1 -16 12l-97 466h-36c-8 0 -12 6 -12 14v38c0 8 4 12 12 12h162c8 0 14 -3 14 -12v-38c0 -8 -6 -14 -14 -14h-50
l60 -309c3 -14 7 -45 9 -60c2 15 8 44 11 60l77 361c2 9 5 12 15 12h50c11 0 13 -3 15 -12l65 -366c4 -20 8 -50 10 -66c2 18 6 48 10 66l63 314h-50c-9 0 -12 6 -12 14v38c0 8 3 12 12 12h161c8 0 13 -4 13 -12v-38z" />
    <glyph glyph-name="x" unicode="x" horiz-adv-x="462" 
d="M462 12c0 -8 -7 -12 -15 -12h-165c-8 0 -12 4 -12 12v38c0 8 3 13 12 13h37l-74 130c-5 9 -10 19 -15 30c-4 -9 -9 -17 -16 -30l-75 -130h37c7 0 14 -5 14 -13v-38c0 -8 -7 -12 -14 -12h-164c-9 0 -12 5 -12 12v38c0 8 3 13 12 13h43l131 220l-118 195h-42
c-9 0 -13 6 -13 14v38c0 8 5 12 13 12h165c8 0 13 -4 13 -12v-38c0 -8 -4 -14 -13 -14h-40l62 -101c8 -13 11 -24 17 -35c6 13 11 23 20 38l58 98h-32c-8 0 -13 6 -13 14v38c0 8 6 12 13 12h158c8 0 12 -4 12 -12v-38c0 -8 -4 -14 -12 -14h-43l-120 -194l134 -221h42
c8 0 15 -5 15 -13v-38z" />
    <glyph glyph-name="y" unicode="y" horiz-adv-x="464" 
d="M464 492c0 -8 -5 -14 -13 -14h-37l-143 -248v-167h58c9 0 14 -6 14 -13v-38c0 -8 -6 -12 -14 -12h-191c-8 0 -15 4 -15 12v38c0 9 7 13 15 13h57v165l-147 250h-33c-8 0 -15 6 -15 14v38c0 9 7 12 15 12h165c9 0 12 -4 12 -12v-38c0 -8 -3 -14 -12 -14h-43l77 -142
c10 -19 14 -26 21 -42c6 15 13 26 21 42l74 142h-45c-8 0 -13 6 -13 14v38c0 8 5 12 13 12h166c9 0 13 -4 13 -12v-38z" />
    <glyph glyph-name="z" unicode="z" horiz-adv-x="434" 
d="M420 101l-36 -91c-3 -7 -7 -10 -16 -10h-310c-11 0 -15 2 -15 13v46l252 416h-165v-50c0 -9 -6 -12 -13 -12h-39c-8 0 -13 3 -13 12v103c0 9 6 14 16 14h289c12 0 15 -2 15 -14v-42l-253 -419h201l23 56c4 9 10 9 17 7l40 -13c7 -2 10 -8 7 -16z" />
    <glyph glyph-name="braceleft" unicode="{" horiz-adv-x="426" 
d="M386 -140v-38c0 -11 -6 -12 -12 -12h-22c-45 0 -86 4 -121 34c-38 32 -45 73 -45 120v178c0 27 -4 58 -30 76c-19 13 -42 13 -59 13h-21c-11 0 -12 6 -12 12v36c0 6 1 12 12 12h21c17 0 40 0 59 13c26 18 30 49 30 76v178c0 47 7 88 45 120c35 30 76 34 121 34h22
c11 0 12 -6 12 -12v-38c0 -6 -1 -12 -12 -12h-19c-22 0 -54 -2 -72 -20c-19 -18 -21 -50 -21 -71v-178c0 -40 -5 -96 -72 -120c67 -24 72 -80 72 -120v-178c0 -21 2 -53 21 -71c18 -18 50 -20 72 -20h19c6 0 12 -1 12 -12z" />
    <glyph glyph-name="bar" unicode="|" horiz-adv-x="304" 
d="M188 738v-976c0 -11 -6 -12 -12 -12h-48c-6 0 -12 1 -12 12v976c0 6 1 12 12 12h48c11 0 12 -6 12 -12z" />
    <glyph glyph-name="braceright" unicode="}" horiz-adv-x="426" 
d="M40 662v38c0 6 1 12 12 12h22c45 0 86 -4 121 -34c38 -32 45 -73 45 -120v-178c0 -27 4 -58 30 -76c19 -13 42 -13 59 -13h21c11 0 12 -6 12 -12v-36c0 -11 -6 -12 -12 -12h-21c-17 0 -40 0 -59 -13c-26 -18 -30 -49 -30 -76v-178c0 -47 -7 -88 -45 -120
c-35 -30 -76 -34 -121 -34h-22c-11 0 -12 6 -12 12v38c0 6 1 12 12 12h19c22 0 54 2 72 20c19 18 21 50 21 71v178c0 40 5 96 72 120c-67 24 -72 80 -72 120v178c0 21 -2 53 -21 71c-18 18 -50 20 -72 20h-19c-11 0 -12 6 -12 12z" />
    <glyph glyph-name="asciitilde" unicode="~" horiz-adv-x="469" 
d="M428 314l28 -17c3 -2 7 -2 7 -7c0 -3 -1 -7 -7 -16c-27 -42 -61 -85 -132 -85c-38 0 -62 11 -91 28c-28 17 -54 34 -87 34c-23 0 -57 -8 -84 -48c-9 -14 -16 -8 -21 -5l-28 17c-3 2 -7 2 -7 8c0 5 3 10 8 18c15 23 56 83 131 83c45 0 75 -18 102 -33
c37 -21 50 -30 79 -30c19 0 50 4 80 47c10 15 16 10 22 6z" />
    <glyph glyph-name="afii10051" unicode="&#x402;" horiz-adv-x="637" 
d="M281 335v-323c0 -11 -6 -12 -12 -12h-141c-11 0 -12 6 -12 12v41c0 6 1 12 12 12h71v550h-106v-113c0 -6 -1 -12 -12 -12h-44c-6 0 -12 1 -12 12v171c0 6 1 12 12 12h406c11 0 12 -6 12 -12v-171c0 -12 -6 -12 -11 -12h-46c-6 0 -11 0 -11 12v113h-106v-213
c38 18 88 33 136 33c51 0 98 -19 128 -49c49 -49 53 -122 53 -167c0 -102 -21 -149 -38 -174c-19 -27 -57 -60 -121 -59c-39 0 -69 12 -81 17c-7 3 -15 7 -13 15l10 43c4 18 16 13 23 9c10 -6 38 -18 64 -17c24 1 40 13 50 27c18 26 22 69 22 127c0 49 -4 91 -22 118
c-25 37 -64 43 -95 43c-43 0 -74 -14 -83 -18z" />
    <glyph glyph-name="afii10052" unicode="&#x403;" horiz-adv-x="463" 
d="M114 620h-63c-11 0 -12 6 -12 12v41c0 6 1 12 12 12h378c11 0 12 -6 12 -12v-171c0 -11 -6 -12 -12 -12h-44c-6 0 -12 1 -12 12v113h-177v-550h80c11 0 12 -6 12 -12v-41c0 -6 -1 -12 -12 -12h-225c-6 0 -12 1 -12 12v41c0 11 6 12 12 12h63v555zM125 776l164 102
c2 1 6 3 8 3s5 -1 7 -4l29 -50c3 -5 3 -7 3 -9c0 -6 -8 -9 -11 -10l-172 -69c-4 -1 -8 -3 -11 -3c-2 0 -5 1 -7 4l-13 24c-2 3 -2 5 -2 6c0 3 3 5 5 6z" />
    <glyph glyph-name="afii10100" unicode="&#x453;" horiz-adv-x="429" 
d="M404 397c0 -8 -5 -13 -13 -13h-39c-7 0 -13 5 -13 13v77h-157v-411h61c9 0 13 -5 13 -13v-38c0 -7 -4 -12 -13 -12h-190c-9 0 -12 5 -12 12v38c0 8 3 13 12 13h52v415h-52c-9 0 -12 6 -12 14v38c0 8 3 12 12 12h336c12 0 15 -4 15 -15v-130zM336 665c0 -3 -2 -4 -9 -8
l-164 -85c-7 -4 -8 -4 -10 -4s-3 0 -9 8l-10 15c-3 5 -4 8 -4 10s2 5 8 9l145 111c5 4 8 5 10 5c4 0 5 -1 10 -8l29 -42c3 -5 4 -8 4 -11z" />
    <glyph glyph-name="quotedblbase" unicode="&#x201e;" horiz-adv-x="407" 
d="M111 114h83c4 0 11 0 11 -7c0 -2 -1 -4 -4 -10l-115 -211c-3 -5 -4 -7 -6 -8c-1 -1 -3 -1 -4 -1c-3 0 -5 1 -8 2l-26 9c-4 1 -7 2 -7 7c0 3 1 6 2 9l59 199c2 5 4 11 15 11zM287 114h83c4 0 11 0 11 -7c0 -2 -1 -4 -4 -10l-115 -211c-3 -5 -4 -7 -6 -8c-1 -1 -3 -1 -4 -1
c-3 0 -5 1 -8 2l-26 9c-4 1 -7 2 -7 7c0 3 1 6 2 9l59 199c2 5 4 11 15 11z" />
    <glyph glyph-name="ellipsis" unicode="&#x2026;" horiz-adv-x="1000" 
d="M236 67c0 -38 -29 -67 -67 -67c-37 0 -67 28 -67 67s30 67 67 67s67 -28 67 -67zM567 67c0 -38 -29 -67 -67 -67c-37 0 -67 28 -67 67s30 67 67 67s67 -28 67 -67zM898 67c0 -38 -29 -67 -67 -67c-37 0 -67 28 -67 67s30 67 67 67s67 -28 67 -67z" />
    <glyph glyph-name="dagger" unicode="&#x2020;" 
d="M212 387h-119c-6 0 -12 1 -12 12v48c0 11 6 12 12 12h119v214c0 6 1 12 12 12h52c11 0 12 -6 12 -12v-214h119c11 0 12 -6 12 -12v-48c0 -11 -6 -12 -12 -12h-119v-585c0 -11 -6 -12 -12 -12h-52c-6 0 -12 1 -12 12v585z" />
    <glyph glyph-name="Euro" unicode="&#x20ac;" horiz-adv-x="498" 
d="M396 163h43c13 0 11 -5 11 -11v-105c-39 -54 -115 -61 -150 -61c-142 0 -218 122 -211 261h-60c-3 0 -5 -1 -9 2c0 0 -2 1 -2 3s0 4 1 6l4 17c1 6 2 9 6 12c7 5 10 4 14 4h43v66h-58c-3 0 -10 2 -10 5s1 3 1 5l6 24l4 6c3 4 10 4 13 4h47c-2 126 72 256 203 256
c36 0 95 -7 143 -47c3 -2 10 -11 10 -14v-96c0 -10 -5 -11 -7 -11h-4h-43c-10 0 -10 7 -10 11v63c-7 6 -36 27 -87 27c-41 0 -121 -30 -124 -189h198l8 -1c4 0 6 -4 5 -7l-1 -4l-5 -21l-3 -7c-3 -5 -7 -4 -11 -4h-192v-66h172c4 0 14 0 12 -8l-1 -4l-5 -21
c1 -6 -5 -10 -7 -10l-7 -1h-160c-5 -112 59 -188 129 -188c45 0 72 17 84 26v67c0 5 3 11 10 11z" />
    <glyph glyph-name="afii10058" unicode="&#x409;" horiz-adv-x="836" 
d="M494 396h98c42 0 98 -7 145 -40c38 -27 74 -76 74 -161c0 -75 -31 -117 -46 -134c-48 -54 -119 -61 -170 -61h-246c-6 0 -12 1 -12 12v41c0 6 1 12 12 12h63v550h-161v-18c0 -83 -4 -229 -14 -327c-7 -67 -18 -139 -49 -195c-26 -46 -62 -76 -126 -87
c-19 -3 -33 -5 -36 7l-15 52c-3 10 0 19 10 20l11 1c77 7 98 55 111 101c32 111 33 334 33 366v85h-63c-11 0 -12 6 -12 12v41c0 6 1 12 12 12h444c11 0 12 -6 12 -12v-41c0 -11 -6 -12 -12 -12h-63v-224zM494 70h97c25 0 70 3 101 38c15 17 29 45 29 89c0 34 -8 68 -37 95
c-34 32 -76 34 -98 34h-92v-256z" />
    <glyph glyph-name="afii10059" unicode="&#x40a;" horiz-adv-x="876" 
d="M114 620h-63c-11 0 -12 6 -12 12v41c0 6 1 12 12 12h208c11 0 12 -6 12 -12v-41c0 -6 -1 -12 -12 -12h-63v-227h256v227h-63c-11 0 -12 6 -12 12v41c0 6 1 12 12 12h208c6 0 12 -1 12 -12v-41c0 -11 -6 -12 -12 -12h-63v-227h98c62 0 111 -15 145 -39
c28 -19 74 -66 74 -160c0 -70 -29 -137 -94 -170c-40 -20 -85 -24 -125 -24h-243c-6 0 -12 1 -12 12v41c0 6 1 12 12 12h63v258h-256v-258h63c11 0 12 -6 12 -12v-41c0 -11 -6 -12 -12 -12h-208c-6 0 -12 1 -12 12v41c0 11 6 12 12 12h63v555zM534 70h97
c81 0 130 47 130 127c0 123 -112 126 -135 126h-92v-253z" />
    <glyph glyph-name="afii10061" unicode="&#x40c;" horiz-adv-x="571" 
d="M114 620h-63c-11 0 -12 6 -12 12v41c0 6 1 12 12 12h208c11 0 12 -6 12 -12v-41c0 -6 -1 -12 -12 -12h-63v-229h68c34 0 60 5 81 86l19 74c28 110 54 132 125 145l11 2c2 0 4 1 6 1c7 0 11 -3 13 -11l14 -45c2 -8 4 -13 -14 -17l-15 -3c-35 -7 -45 -10 -67 -93l-15 -56
c-12 -45 -23 -90 -74 -117c58 -23 72 -67 78 -88l37 -136c12 -43 19 -63 59 -69l19 -3c18 -3 16 -11 14 -16l-15 -48c-3 -10 -5 -11 -12 -11s-13 1 -20 2l-15 2c-48 6 -73 28 -84 42c-18 23 -25 58 -36 102l-25 101c-19 78 -46 86 -84 86h-68v-256h63c11 0 12 -6 12 -12v-41
c0 -11 -6 -12 -12 -12h-208c-6 0 -12 1 -12 12v41c0 11 6 12 12 12h63v555zM178 776l164 102c2 1 6 3 8 3s5 -1 7 -4l29 -50c3 -5 3 -7 3 -9c0 -6 -8 -9 -11 -10l-172 -69c-4 -1 -8 -3 -11 -3c-2 0 -5 1 -7 4l-13 24c-2 3 -2 5 -2 6c0 3 3 5 5 6z" />
    <glyph glyph-name="afii10060" unicode="&#x40b;" horiz-adv-x="718" 
d="M356 53v-41c0 -11 -6 -12 -12 -12h-216c-11 0 -12 6 -12 12v41c0 6 1 12 12 12h71v550h-106v-113c0 -6 -1 -12 -12 -12h-44c-6 0 -12 1 -12 12v171c0 6 1 12 12 12h406c11 0 12 -6 12 -12v-171c0 -12 -6 -12 -11 -12h-46c-6 0 -11 0 -11 12v113h-106v-213
c52 22 99 33 146 33c20 0 82 -2 124 -37c20 -17 53 -55 53 -128v-205h63c6 0 12 -1 12 -12v-41c0 -11 -6 -12 -12 -12h-208c-6 0 -12 1 -12 12v41c0 11 6 12 12 12h63v205c0 25 -4 50 -24 70c-24 24 -59 28 -82 28c-22 0 -47 -3 -72 -10c-22 -6 -49 -17 -63 -23v-270h63
c11 0 12 -6 12 -12z" />
    <glyph glyph-name="afii10145" unicode="&#x40f;" horiz-adv-x="628" 
d="M589 673v-41c0 -11 -6 -12 -12 -12h-63v-555h63c6 0 12 -1 12 -12v-41c0 -11 -6 -12 -12 -12h-222v-176c0 -6 -1 -12 -12 -12h-58c-6 0 -12 1 -12 12v176h-222c-6 0 -12 1 -12 12v41c0 11 6 12 12 12h63v555h-63c-11 0 -12 6 -12 12v41c0 6 1 12 12 12h208
c11 0 12 -6 12 -12v-41c0 -6 -1 -12 -12 -12h-63v-550h236v550h-63c-6 0 -12 1 -12 12v41c0 6 1 12 12 12h208c11 0 12 -6 12 -12z" />
    <glyph glyph-name="afii10099" unicode="&#x452;" horiz-adv-x="511" 
d="M274 15l10 46c2 8 5 11 14 8l12 -4c9 -3 23 -6 34 -6c29 0 44 15 50 23c11 14 17 38 17 77c0 21 -1 58 -25 82c-13 13 -34 24 -71 24c-33 0 -57 -8 -94 -24v-229c0 -7 -5 -12 -13 -12h-115c-10 0 -14 5 -14 12v38c0 4 1 13 14 13h52v415h-75v-83c0 -10 -8 -11 -12 -11
h-39c-8 0 -14 2 -14 11v133c0 9 3 14 12 14h331c10 0 14 -5 14 -15v-132c0 -9 -6 -11 -14 -11h-38c-8 0 -14 2 -14 11v83h-75v-173c39 17 79 24 113 24c62 0 98 -23 116 -42c35 -36 41 -85 41 -122c0 -38 -5 -87 -33 -125c-27 -37 -63 -50 -106 -50c-20 0 -50 3 -70 12
c-5 3 -10 5 -8 13z" />
    <glyph glyph-name="quoteleft" unicode="&#x2018;" horiz-adv-x="185" 
d="M99 480h-83c-4 0 -11 0 -11 7c0 2 1 4 4 10l115 211c3 5 4 7 6 8c1 1 3 1 4 1c3 0 5 -1 8 -2l26 -9c4 -1 7 -2 7 -7c0 -3 -1 -6 -2 -9l-59 -199c-2 -5 -4 -11 -15 -11z" />
    <glyph glyph-name="quoteright" unicode="&#x2019;" horiz-adv-x="185" 
d="M86 717h83c4 0 11 0 11 -7c0 -2 -1 -4 -4 -10l-115 -211c-3 -5 -4 -7 -6 -8c-1 -1 -3 -1 -4 -1c-3 0 -5 1 -8 2l-26 9c-4 1 -7 2 -7 7c0 3 1 6 2 9l59 199c2 5 4 11 15 11z" />
    <glyph glyph-name="quotedblleft" unicode="&#x201c;" horiz-adv-x="407" 
d="M136 480h-83c-4 0 -11 0 -11 7c0 2 1 4 4 10l115 211c3 5 4 7 6 8c1 1 3 1 4 1c3 0 5 -1 8 -2l26 -9c4 -1 7 -2 7 -7c0 -3 -1 -6 -2 -9l-59 -199c-2 -5 -4 -11 -15 -11zM312 480h-83c-4 0 -11 0 -11 7c0 2 1 4 4 10l115 211c3 5 4 7 6 8c1 1 3 1 4 1c3 0 5 -1 8 -2l26 -9
c4 -1 7 -2 7 -7c0 -3 -1 -6 -2 -9l-59 -199c-2 -5 -4 -11 -15 -11z" />
    <glyph glyph-name="quotedblright" unicode="&#x201d;" horiz-adv-x="412" 
d="M134 717h83c4 0 11 0 11 -7c0 -2 -1 -4 -4 -10l-115 -211c-3 -5 -4 -7 -6 -8c-1 -1 -3 -1 -4 -1c-3 0 -5 1 -8 2l-26 9c-4 1 -7 2 -7 7c0 3 1 6 2 9l59 199c2 5 4 11 15 11zM310 717h83c4 0 11 0 11 -7c0 -2 -1 -4 -4 -10l-115 -211c-3 -5 -4 -7 -6 -8c-1 -1 -3 -1 -4 -1
c-3 0 -5 1 -8 2l-26 9c-4 1 -7 2 -7 7c0 3 1 6 2 9l59 199c2 5 4 11 15 11z" />
    <glyph glyph-name="bullet" unicode="&#x2022;" 
d="M431 360c0 -100 -81 -180 -181 -180s-181 80 -181 180s81 182 181 182s181 -82 181 -182z" />
    <glyph glyph-name="endash" unicode="&#x2013;" horiz-adv-x="556" 
d="M50 234v42c0 13 7 13 12 13h431c5 0 12 0 12 -13v-42c0 -6 -1 -12 -12 -12h-431c-6 0 -12 1 -12 12z" />
    <glyph glyph-name="emdash" unicode="&#x2014;" horiz-adv-x="1000" 
d="M50 234v43c0 11 6 12 12 12h875c11 0 12 -6 12 -12v-43c0 -11 -6 -12 -12 -12h-875c-6 0 -12 1 -12 12z" />
    <glyph glyph-name="trademark" unicode="&#x2122;" horiz-adv-x="759" 
d="M143 604h-52v-57c0 -5 -1 -12 -12 -12h-27c-11 0 -12 7 -12 12v95c0 5 1 12 12 12h243c11 0 12 -7 12 -12v-95c0 -5 -1 -12 -12 -12h-27c-11 0 -12 7 -12 12v57h-52v-294h38c11 0 12 -7 12 -12v-21c0 -11 -7 -12 -12 -12h-137c-5 0 -12 1 -12 12v21c0 11 7 12 12 12h38
v294zM366 310l19 299h-36c-11 0 -12 7 -12 12v21c0 5 1 12 12 12h87c12 0 12 -7 14 -11l72 -201h2l72 203c1 4 3 9 11 9h91c5 0 12 -1 12 -12v-22c0 -5 -1 -12 -12 -12h-36l17 -298h28c5 0 12 -1 12 -12v-21c0 -11 -7 -12 -12 -12h-124c-5 0 -12 1 -12 12v21
c0 11 7 12 12 12h36l-7 237l-67 -182c-4 -12 -9 -14 -12 -14h-25c-6 0 -10 9 -12 14l-63 181l-9 -236h36c11 0 12 -7 12 -12v-21c0 -5 -1 -12 -12 -12h-122c-11 0 -12 7 -12 12v21c0 11 7 12 12 12h28z" />
    <glyph glyph-name="afii10106" unicode="&#x459;" horiz-adv-x="701" 
d="M89 542h385c4 0 14 -1 14 -12v-38c0 -12 -7 -14 -14 -14h-50v-161h63c14 0 95 -1 145 -39c46 -35 54 -83 54 -120c0 -63 -25 -98 -46 -117c-41 -37 -99 -41 -144 -41h-199c-10 0 -14 5 -14 12v38c0 4 1 13 14 13h50v415h-134v-23c0 -54 -2 -144 -6 -208
s-10 -163 -66 -218c-34 -33 -79 -40 -101 -40c-7 0 -13 1 -16 9l-14 44c-3 9 2 15 9 16l7 1c17 2 40 5 59 21c39 33 47 117 51 173c4 58 5 115 5 173v52h-51c-11 0 -13 5 -13 14v38c0 8 4 12 12 12zM424 63h53c26 0 73 2 100 26c16 15 27 40 27 70c0 32 -13 56 -28 70
c-25 22 -67 25 -103 25h-49v-191z" />
    <glyph glyph-name="afii10107" unicode="&#x45a;" horiz-adv-x="754" 
d="M522 542c4 0 14 -1 14 -12v-38c0 -12 -7 -14 -14 -14h-50v-161h63c14 0 95 -1 145 -39c46 -35 54 -83 54 -120c0 -63 -25 -98 -46 -117c-41 -37 -99 -41 -144 -41h-199c-10 0 -14 5 -14 12v38c0 4 1 13 14 13h50v191h-213v-190h51c9 0 13 -6 13 -13v-39
c0 -10 -6 -12 -13 -12h-180c-8 0 -12 4 -12 12v39c0 8 3 13 12 13h52v414h-52c-11 0 -12 7 -12 14v38c0 8 4 12 12 12h180c8 0 13 -3 13 -12v-38c0 -10 -6 -14 -13 -14h-51v-161h213v161h-50c-7 0 -14 2 -14 14v38c0 11 10 12 14 12h177zM472 63h53c26 0 73 2 100 26
c16 15 27 40 27 70c0 32 -13 56 -28 70c-25 22 -67 25 -103 25h-49v-191z" />
    <glyph glyph-name="afii10109" unicode="&#x45c;" 
d="M105 478h-53c-10 0 -11 8 -11 14v37c0 7 2 13 12 13h180c9 0 13 -4 13 -13v-37c0 -7 -1 -14 -12 -14h-52v-164h51c15 0 38 1 56 18c16 16 23 42 27 63l8 40c6 29 13 62 36 85c19 19 46 27 63 30l5 1c11 2 24 5 28 -7l15 -46c2 -7 -2 -13 -11 -14l-9 -1
c-6 -1 -27 -3 -40 -17c-11 -12 -16 -29 -20 -47l-13 -54c-4 -18 -10 -38 -22 -54c-8 -11 -21 -23 -41 -29c14 -3 31 -11 43 -23c14 -14 21 -34 24 -46l30 -104c5 -18 10 -31 18 -39s23 -13 38 -15l10 -1c5 -1 9 -4 7 -13l-12 -43c-2 -9 -6 -11 -29 -8l-8 1
c-34 4 -56 17 -69 31c-21 22 -29 58 -36 84l-19 75c-4 16 -10 39 -25 52c-16 14 -38 16 -52 16h-53v-185h52c7 0 12 -4 12 -14v-37c0 -12 -6 -13 -14 -13h-179c-9 0 -12 5 -12 13v37c0 10 5 14 12 14h52v414zM376 665c0 -3 -2 -4 -9 -8l-164 -85c-7 -4 -8 -4 -10 -4
s-3 0 -9 8l-10 15c-3 5 -4 8 -4 10s2 5 8 9l145 111c5 4 8 5 10 5c4 0 5 -1 10 -8l29 -42c3 -5 4 -8 4 -11z" />
    <glyph glyph-name="afii10108" unicode="&#x45b;" horiz-adv-x="560" 
d="M221 478v-173c47 20 81 24 112 24c64 0 101 -21 121 -41c30 -30 36 -68 36 -99v-126h52c9 0 13 -4 13 -13v-38c0 -7 -5 -12 -13 -12h-180c-10 0 -14 5 -14 12v38c0 4 1 13 14 13h52v110c0 19 -1 47 -24 69c-15 14 -40 23 -71 23c-36 0 -73 -13 -98 -24v-178h52
c9 0 13 -4 13 -13v-38c0 -7 -5 -12 -13 -12h-180c-10 0 -14 5 -14 12v38c0 4 1 13 14 13h52v415h-75v-83c0 -10 -8 -11 -12 -11h-39c-8 0 -14 2 -14 11v133c0 9 3 14 12 14h331c10 0 14 -5 14 -15v-132c0 -9 -6 -11 -14 -11h-38c-8 0 -14 2 -14 11v83h-75z" />
    <glyph glyph-name="afii10193" unicode="&#x45f;" horiz-adv-x="577" 
d="M53 542h181c8 0 13 -3 13 -12v-38c0 -13 -9 -14 -13 -14h-52v-413h213v413h-52c-7 0 -14 2 -14 14v38c0 7 4 12 14 12h180c8 0 13 -3 13 -12v-38c0 -13 -9 -14 -13 -14h-52v-415h52c9 0 13 -4 13 -13v-38c0 -10 -6 -12 -13 -12h-197v-132c0 -8 -3 -13 -12 -13h-51
c-11 0 -12 7 -12 14v131h-198c-8 0 -12 4 -12 12v38c0 8 3 13 12 13h52v415h-52c-11 0 -12 7 -12 14v38c0 8 2 12 12 12z" />
    <glyph glyph-name="nbspace" horiz-adv-x="233" 
 />
    <glyph glyph-name="afii10062" unicode="&#x40e;" horiz-adv-x="544" 
d="M485 620l-159 -500c-16 -49 -36 -90 -72 -113c-21 -13 -50 -21 -80 -21c-38 0 -74 10 -109 35c-14 10 -13 17 -10 24l21 43c2 4 3 7 10 7s12 -6 18 -11c13 -11 41 -31 70 -31c16 0 42 5 60 31c10 14 19 38 29 73l10 36h-35c-12 0 -14 5 -17 14l-158 413h-41
c-11 0 -12 6 -12 12v42c0 6 0 11 12 11h190c11 0 11 -6 11 -11v-42c0 -12 -6 -12 -11 -12h-61l103 -270c11 -29 25 -75 34 -109h3c12 58 25 96 33 122l80 257h-53c-11 0 -12 6 -12 12v42c0 6 0 11 12 11h175c12 0 12 -5 12 -11v-42c0 -11 -6 -12 -12 -12h-41zM355 860l36 -6
c3 0 10 -2 11 -12v-2c-1 -21 -24 -111 -130 -111s-129 90 -130 111v2c1 10 8 12 11 12l36 6c6 1 15 4 17 -8l3 -15c4 -20 15 -55 63 -55s59 35 63 55l3 15c2 12 11 9 17 8z" />
    <glyph glyph-name="afii10110" unicode="&#x45e;" horiz-adv-x="483" 
d="M371 685c0 -15 -14 -47 -29 -67c-22 -30 -56 -46 -100 -46c-50 0 -89 21 -111 59c-9 16 -18 42 -18 54c0 8 3 11 11 12l39 7h4c6 0 8 -2 10 -10c9 -48 29 -69 64 -69c36 0 55 20 65 69c2 8 4 10 11 10h4l39 -7c8 -1 11 -5 11 -12zM413 478l-120 -366
c-11 -33 -21 -66 -45 -91c-25 -26 -55 -31 -82 -31c-50 0 -79 18 -94 30l-4 3c-6 4 -6 9 -4 13l22 43c2 3 7 10 19 0l5 -4c20 -16 35 -22 53 -22c19 0 34 6 47 24c8 11 15 31 19 46l8 30h-22c-17 0 -20 7 -24 18l-121 307h-46c-11 0 -14 3 -14 14v38c0 11 7 12 14 12h170
c8 0 13 -3 13 -12v-38c0 -11 -1 -14 -14 -14h-46l74 -191c11 -30 19 -49 29 -86h2c11 42 19 67 29 96l61 181h-48c-11 0 -12 7 -12 14v38c0 8 2 12 12 12h166c10 0 13 -2 13 -12v-38c0 -9 -2 -14 -13 -14h-47z" />
    <glyph glyph-name="afii10057" unicode="&#x408;" horiz-adv-x="444" 
d="M366 673v-504c0 -39 -6 -89 -43 -130c-30 -33 -75 -53 -141 -53c-49 0 -101 13 -136 57c-27 34 -40 84 -40 123v18c0 11 6 12 12 12h52c11 0 12 -6 12 -12v-6c0 -30 3 -65 24 -92c18 -23 43 -33 77 -33c38 0 62 13 76 29c24 27 25 68 25 87v446h-175c-11 0 -12 6 -12 12
v46c0 6 1 12 12 12h245c11 0 12 -6 12 -12z" />
    <glyph glyph-name="currency" unicode="&#xa4;" horiz-adv-x="491" 
d="M17 118l60 61c-31 39 -48 82 -48 135s17 96 48 135l-60 61c-4 4 -10 10 0 20l12 12c10 10 16 4 20 0l61 -60c39 31 82 48 135 48s96 -17 135 -48l61 60c4 4 10 10 20 0l12 -12c10 -10 4 -16 0 -20l-60 -61c31 -39 48 -82 48 -135s-17 -96 -48 -135l60 -60
c10 -10 5 -16 0 -21l-12 -12c-10 -10 -16 -4 -20 0l-61 60c-50 -39 -102 -48 -136 -48c-20 0 -77 4 -134 48l-61 -60c-4 -4 -10 -10 -20 0l-12 12c-10 10 -4 16 0 20zM125 194c30 -30 74 -50 120 -50c93 0 170 77 170 170s-77 170 -170 170s-170 -77 -170 -170
c0 -46 20 -90 50 -120z" />
    <glyph glyph-name="afii10050" unicode="&#x490;" horiz-adv-x="463" 
d="M288 53v-41c0 -6 -1 -12 -12 -12h-225c-6 0 -12 1 -12 12v41c0 11 6 12 12 12h63v555h-63c-11 0 -12 6 -12 12v41c0 6 1 12 12 12h322v113c0 6 1 12 12 12h44c11 0 12 -6 12 -12v-171c0 -6 -1 -12 -12 -12h-233v-550h80c11 0 12 -6 12 -12z" />
    <glyph glyph-name="section" unicode="&#xa7;" 
d="M387 533l-18 -38c-1 -3 -3 -7 -7 -7c-6 0 -12 5 -17 8c-12 9 -49 28 -89 28c-55 0 -78 -32 -78 -62c0 -32 25 -49 45 -61c27 -16 46 -24 75 -39c13 -7 35 -19 44 -25c45 -28 80 -65 80 -122c0 -48 -23 -79 -46 -102c-32 -32 -66 -49 -73 -52c32 -19 44 -23 64 -43
c15 -15 35 -41 35 -84c0 -30 -9 -61 -34 -89c-41 -47 -95 -55 -132 -55c-40 0 -85 13 -136 40c-24 13 -24 21 -20 29l20 39c2 3 3 8 10 8c4 0 8 -2 11 -5c30 -24 85 -44 120 -44c23 0 42 7 60 23c11 9 25 24 25 47c0 17 -6 38 -23 55c-15 15 -39 27 -87 50l-17 8
c-20 10 -60 33 -79 50c-30 27 -42 57 -42 93c0 84 51 121 118 157c-38 14 -94 51 -94 118c0 37 14 77 51 103c29 21 69 30 109 30c54 0 89 -18 113 -31c5 -3 15 -8 15 -18c0 -4 -2 -7 -3 -9zM250 94c85 41 96 87 96 109c0 10 -2 34 -24 58c-13 14 -33 27 -78 50
c-41 -22 -59 -43 -68 -54c-13 -17 -22 -37 -22 -61c0 -22 7 -41 25 -59c13 -13 33 -26 71 -43z" />
    <glyph glyph-name="afii10023" unicode="&#x401;" horiz-adv-x="481" 
d="M449 159v-147c0 -11 -6 -12 -12 -12h-385c-11 0 -12 6 -12 12v41c0 11 6 12 12 12h63v555h-63c-11 0 -12 6 -12 12v41c0 6 1 12 12 12h378c11 0 12 -6 12 -12v-138c0 -6 -1 -12 -12 -12h-44c-11 0 -12 6 -12 12v80h-177v-222h197c11 0 12 -6 12 -12v-46
c0 -11 -6 -12 -12 -12h-197v-253h184v89c0 6 1 12 12 12h44c11 0 12 -6 12 -12zM210 779c0 -28 -23 -53 -53 -53c-29 0 -53 24 -53 53s24 53 53 53c30 0 53 -25 53 -53zM301 779c0 29 24 53 53 53s53 -24 53 -53s-24 -53 -53 -53s-53 24 -53 53z" />
    <glyph glyph-name="copyright" unicode="&#xa9;" horiz-adv-x="492" 
d="M40 468c0 113 93 206 206 206s206 -93 206 -206s-93 -206 -206 -206s-206 93 -206 206zM84 468c0 -89 73 -162 162 -162s162 73 162 162s-73 162 -162 162s-162 -73 -162 -162zM276 523v22c-7 2 -20 4 -27 4c-34 0 -36 -40 -36 -76c0 -41 3 -87 43 -87c5 0 9 1 20 3v22
c0 6 4 10 10 10h15c6 0 10 -4 10 -10v-35c0 -17 -43 -25 -59 -25c-75 0 -90 69 -90 117c0 89 37 117 85 117c43 0 64 -20 64 -28v-34c0 -6 -4 -10 -10 -10h-15c-6 0 -10 4 -10 10z" />
    <glyph glyph-name="afii10053" unicode="&#x404;" horiz-adv-x="484" 
d="M350 381v-43c0 -11 -6 -12 -12 -12h-196v-14c0 -51 9 -128 30 -177c10 -23 39 -82 116 -82c34 0 68 15 80 21l8 4v89c0 11 6 12 12 12h44c11 0 12 -6 12 -12v-104c0 -16 1 -20 -19 -33c-47 -30 -103 -44 -145 -44c-59 0 -127 22 -173 102c-29 51 -55 133 -55 261
c0 82 15 192 56 258c46 73 121 92 174 92c59 0 104 -24 122 -34c35 -21 35 -25 35 -35v-111c0 -6 -1 -12 -12 -12h-44c-11 0 -12 6 -12 12v87l-14 7c-23 12 -56 19 -81 19c-32 0 -68 -11 -94 -48c-39 -56 -43 -154 -42 -191h198c11 0 12 -6 12 -12z" />
    <glyph glyph-name="guillemotleft" unicode="&#xab;" horiz-adv-x="480" 
d="M117 239l130 -193c1 -2 3 -4 3 -7c0 -6 -4 -7 -6 -8l-33 -19c-2 -1 -3 -2 -5 -2c-6 0 -8 5 -11 8l-168 211c-2 2 -5 4 -5 10s3 8 5 10l168 211c3 3 5 8 11 8c2 0 3 -1 5 -2l33 -19c2 -1 6 -2 6 -8c0 -3 -2 -5 -3 -7zM302 239l130 -193c1 -2 3 -4 3 -7c0 -6 -4 -7 -6 -8
l-33 -19c-2 -1 -3 -2 -5 -2c-6 0 -8 5 -11 8l-168 211c-2 2 -5 4 -5 10s3 8 5 10l168 211c3 3 5 8 11 8c2 0 3 -1 5 -2l33 -19c2 -1 6 -2 6 -8c0 -3 -2 -5 -3 -7z" />
    <glyph glyph-name="logicalnot" unicode="&#xac;" 
d="M477 346v-185c0 -11 -6 -12 -12 -12h-48c-6 0 -12 1 -12 12v125h-371c-6 0 -12 1 -12 12v48c0 6 1 12 12 12h431c11 0 12 -6 12 -12z" />
    <glyph glyph-name="registered" unicode="&#xae;" horiz-adv-x="492" 
d="M40 468c0 113 93 206 206 206s206 -93 206 -206s-93 -206 -206 -206s-206 93 -206 206zM84 468c0 -89 73 -162 162 -162s162 73 162 162s-73 162 -162 162s-162 -73 -162 -162zM177 388v163h-14c-6 0 -10 4 -10 10v12c0 6 4 10 10 10h91c13 0 70 0 70 -61
c0 -38 -24 -55 -44 -61l44 -73h11c6 0 10 -4 10 -10v-12c0 -6 -4 -10 -10 -10h-32c-12 0 -14 5 -16 9l-51 89h-14v-66h14c6 0 10 -4 10 -10v-12c0 -6 -4 -10 -10 -10h-73c-6 0 -10 4 -10 10v12c0 6 4 10 10 10h14zM222 551v-65h20c31 0 35 23 35 35c0 16 -13 30 -31 30h-24z
" />
    <glyph glyph-name="afii10056" unicode="&#x407;" horiz-adv-x="333" 
d="M208 65h91c11 0 12 -6 12 -12v-41c0 -6 -1 -12 -12 -12h-264c-11 0 -12 6 -12 12v41c0 11 6 12 12 12h91v555h-91c-11 0 -12 6 -12 12v41c0 6 1 12 12 12h264c11 0 12 -6 12 -12v-41c0 -6 -1 -12 -12 -12h-91v-555zM14 804c0 30 26 56 56 56s56 -26 56 -56
s-26 -56 -56 -56s-56 26 -56 56zM216 804c0 30 26 56 56 56s56 -26 56 -56s-26 -56 -56 -56s-56 26 -56 56z" />
    <glyph glyph-name="degree" unicode="&#xb0;" 
d="M404 531c0 -86 -70 -154 -154 -154c-86 0 -155 69 -155 154s69 154 155 154c84 0 154 -68 154 -154zM249 440c51 0 92 41 92 91s-41 91 -92 91c-50 0 -91 -40 -91 -91s41 -91 91 -91z" />
    <glyph glyph-name="plusminus" unicode="&#xb1;" 
d="M285 290h180c11 0 12 -6 12 -12v-48c0 -6 -1 -12 -12 -12h-180v-146c0 -11 -6 -12 -12 -12h-48c-6 0 -12 1 -12 12v146h-179c-6 0 -12 1 -12 12v48c0 11 6 12 12 12h179v178c0 11 6 12 12 12h48c11 0 12 -6 12 -12v-178zM477 9v-47c0 -11 -6 -12 -12 -12h-431
c-11 0 -12 6 -12 12v47c0 13 7 13 12 13h431c5 0 12 0 12 -13z" />
    <glyph glyph-name="afii10055" unicode="&#x406;" horiz-adv-x="333" 
d="M208 65h91c11 0 12 -6 12 -12v-41c0 -6 -1 -12 -12 -12h-264c-11 0 -12 6 -12 12v41c0 11 6 12 12 12h91v555h-91c-11 0 -12 6 -12 12v41c0 6 1 12 12 12h264c11 0 12 -6 12 -12v-41c0 -6 -1 -12 -12 -12h-91v-555z" />
    <glyph glyph-name="afii10103" unicode="&#x456;" horiz-adv-x="322" 
d="M287 13c0 -11 -3 -13 -15 -13h-222c-12 0 -15 2 -15 13v36c0 11 3 14 15 14h73v415h-73c-13 0 -15 4 -15 15v35c0 11 3 14 15 14h222c12 0 15 -2 15 -14v-35c0 -11 -3 -15 -15 -15h-72v-415h72c12 0 15 -2 15 -14v-36z" />
    <glyph glyph-name="afii10098" unicode="&#x491;" horiz-adv-x="389" 
d="M374 639v-152c0 -9 -6 -13 -13 -13h-179v-411h61c9 0 13 -4 13 -13v-38c0 -9 -5 -12 -13 -12h-190c-8 0 -12 4 -12 12v38c0 8 5 13 12 13h52v415h-52c-7 0 -12 4 -12 14v38c0 8 4 12 12 12h256v97c0 7 4 13 13 13h39c7 0 13 -4 13 -13z" />
    <glyph glyph-name="mu" unicode="&#xb5;" horiz-adv-x="556" 
d="M527 50v-38c0 -11 -6 -12 -12 -12h-84c-18 0 -22 1 -37 34l-5 11c-28 -23 -82 -59 -139 -59c-37 0 -57 13 -70 25v-151h63c11 0 12 -6 12 -12v-38c0 -11 -6 -12 -12 -12h-190c-6 0 -12 1 -12 12v38c0 11 6 12 12 12h51v558h-56c-6 0 -12 1 -12 12v38c0 11 6 12 12 12h120
c11 0 12 -6 12 -12v-334c0 -67 44 -81 82 -81c29 0 86 26 114 51v314h-57c-6 0 -12 1 -12 12v38c0 11 6 12 12 12h121c11 0 12 -6 12 -12v-343c0 -17 0 -34 4 -54l2 -9h57c6 0 12 -1 12 -12z" />
    <glyph glyph-name="mu" unicode="&#x3bc;" horiz-adv-x="556" 
d="M527 50v-38c0 -11 -6 -12 -12 -12h-84c-18 0 -22 1 -37 34l-5 11c-28 -23 -82 -59 -139 -59c-37 0 -57 13 -70 25v-151h63c11 0 12 -6 12 -12v-38c0 -11 -6 -12 -12 -12h-190c-6 0 -12 1 -12 12v38c0 11 6 12 12 12h51v558h-56c-6 0 -12 1 -12 12v38c0 11 6 12 12 12h120
c11 0 12 -6 12 -12v-334c0 -67 44 -81 82 -81c29 0 86 26 114 51v314h-57c-6 0 -12 1 -12 12v38c0 11 6 12 12 12h121c11 0 12 -6 12 -12v-343c0 -17 0 -34 4 -54l2 -9h57c6 0 12 -1 12 -12z" />
    <glyph glyph-name="paragraph" unicode="&#xb6;" horiz-adv-x="611" 
d="M501 620v-794c0 -11 -6 -12 -12 -12h-45c-6 0 -12 1 -12 12v794h-64v-794c0 -11 -6 -12 -12 -12h-45c-11 0 -12 6 -12 12v348l-16 -2c-13 -2 -15 -5 -58 -5c-77 0 -186 37 -186 259c0 59 4 112 37 168c25 42 68 91 211 91h283c6 0 12 -1 12 -12v-41c0 -6 -1 -12 -12 -12
h-69zM299 238v382h-23c-36 0 -77 1 -109 -29c-40 -37 -41 -113 -41 -162c0 -86 7 -197 127 -197c7 0 21 1 46 6z" />
    <glyph glyph-name="afii10071" unicode="&#x451;" horiz-adv-x="434" 
d="M399 13c0 -11 -4 -13 -15 -13h-331c-9 0 -12 5 -12 12v38c0 8 3 13 12 13h52v415h-52c-9 0 -12 6 -12 14v38c0 8 3 12 12 12h326c12 0 14 -4 14 -15v-105c0 -8 -4 -13 -12 -13h-39c-8 0 -14 4 -14 13v52h-146v-160h166c12 0 14 -4 14 -15v-37c0 -11 -3 -13 -14 -13h-166
v-182h153v60c0 8 4 13 12 13h39c9 0 13 -5 13 -13v-114zM374 640c0 -29 -24 -53 -54 -53c-29 0 -53 24 -53 54c0 29 24 53 54 53c29 0 53 -24 53 -54zM202 640c0 -29 -24 -53 -53 -53c-30 0 -54 24 -54 54c0 29 24 53 54 53c29 0 53 -24 53 -54z" />
    <glyph glyph-name="afii61352" unicode="&#x2116;" horiz-adv-x="905" 
d="M563 620v-608c0 -8 -4 -12 -12 -12h-55c-6 0 -13 3 -16 10l-230 494c-11 23 -16 39 -21 61l-6 26l-2 -2l4 -26c3 -18 6 -28 6 -63v-435h65c8 0 12 -4 12 -12v-41c0 -10 -4 -12 -12 -12h-201c-8 0 -12 4 -12 12v41c0 8 4 12 12 12h63v555h-63c-10 0 -12 4 -12 12v41
c0 8 4 12 12 12h140c8 0 11 -1 15 -9l221 -466c10 -21 14 -39 17 -51l7 -26l2 2c-1 3 -7 35 -7 49v436h-65c-8 0 -12 2 -12 12v41c0 8 2 12 12 12h202c8 0 12 -4 12 -12v-41c0 -10 -4 -12 -12 -12h-64zM885 539c0 -125 -76 -150 -121 -150c-56 0 -114 37 -114 146
c0 125 73 150 120 150c22 0 115 -6 115 -146zM768 439c29 0 59 19 59 101c0 73 -28 95 -59 95c-22 0 -60 -11 -60 -94c0 -81 29 -102 60 -102zM650 272v35c0 10 4 12 12 12h211c8 0 12 -2 12 -12v-35c0 -10 -4 -12 -12 -12h-211c-10 0 -12 4 -12 12z" />
    <glyph glyph-name="afii10101" unicode="&#x454;" horiz-adv-x="436" 
d="M304 305v-41c0 -12 -5 -12 -13 -12h-157v-7c0 -76 16 -136 47 -165c16 -16 42 -27 75 -27c21 0 47 6 65 15l6 3v61c0 12 7 14 14 14h35c10 0 12 -6 12 -13v-85c0 -8 -3 -16 -10 -21l-3 -2c-27 -18 -76 -35 -127 -35c-40 0 -95 9 -133 50c-48 52 -63 145 -63 238
c0 112 24 169 45 199c24 34 70 75 149 75c24 0 51 -4 72 -11c19 -6 44 -17 59 -29l4 -3c6 -4 7 -11 7 -16v-82c0 -13 -4 -15 -16 -15h-34c-12 0 -15 3 -15 15v57l-6 3c-22 11 -42 18 -70 18c-43 0 -66 -19 -80 -38c-24 -33 -32 -88 -32 -127v-7h158c10 0 11 -5 11 -12z" />
    <glyph glyph-name="guillemotright" unicode="&#xbb;" horiz-adv-x="480" 
d="M178 239l-130 193c-1 2 -3 4 -3 7c0 6 4 7 6 8l33 19c2 1 3 2 5 2c6 0 8 -5 11 -8l168 -211c2 -2 5 -4 5 -10s-3 -8 -5 -10l-168 -211c-3 -3 -5 -8 -11 -8c-2 0 -3 1 -5 2l-33 19c-2 1 -6 2 -6 8c0 3 2 5 3 7zM363 239l-130 193c-1 2 -3 4 -3 7c0 6 4 7 6 8l33 19
c2 1 3 2 5 2c6 0 8 -5 11 -8l168 -211c2 -2 5 -4 5 -10s-3 -8 -5 -10l-168 -211c-3 -3 -5 -8 -11 -8c-2 0 -3 1 -5 2l-33 19c-2 1 -6 2 -6 8c0 3 2 5 3 7z" />
    <glyph glyph-name="afii10105" unicode="&#x458;" horiz-adv-x="403" 
d="M328 136c0 -94 -59 -146 -161 -146c-99 0 -156 54 -156 151c0 13 1 18 11 18h52c12 0 9 -8 9 -15c0 -64 29 -91 84 -91c64 0 84 29 84 83v340h-146c-12 0 -15 3 -15 14v38c0 12 3 14 15 14h208c12 0 15 -2 15 -14v-392z" />
    <glyph glyph-name="afii10054" unicode="&#x405;" horiz-adv-x="480" 
d="M353 525v81l-7 3c-36 16 -51 23 -92 23c-66 0 -106 -43 -106 -103c0 -50 27 -78 60 -100c32 -21 62 -34 96 -53c74 -42 136 -98 136 -194c0 -97 -67 -196 -212 -196c-67 0 -147 26 -176 44c-5 3 -10 7 -10 23v116c0 11 6 12 12 12h44c11 0 12 -6 12 -12v-82l5 -2
c25 -10 66 -32 116 -32c86 0 119 62 119 119c0 74 -50 104 -106 136c-45 26 -77 43 -106 64c-41 30 -80 71 -80 148c0 79 45 120 64 135c39 30 85 44 135 44c58 0 114 -17 144 -34c17 -9 20 -12 20 -30v-110c0 -6 -1 -12 -12 -12h-44c-11 0 -12 6 -12 12z" />
    <glyph glyph-name="afii10102" unicode="&#x455;" horiz-adv-x="434" 
d="M391 146c0 -93 -75 -156 -186 -156c-44 0 -104 12 -146 31c-12 6 -16 10 -16 23v91c0 8 4 12 13 12h39c9 0 13 -4 13 -12v-59c36 -12 71 -18 100 -18c57 0 101 30 101 81c0 41 -11 64 -75 94l-48 23c-63 30 -128 67 -128 150c0 85 71 146 173 146c46 0 101 -12 134 -31
c7 -4 10 -9 10 -18v-90c0 -7 -4 -12 -13 -12h-39c-9 0 -12 5 -12 12v59c-26 8 -55 12 -83 12c-57 0 -89 -26 -89 -71c0 -38 14 -59 81 -90l48 -22c65 -30 123 -71 123 -155z" />
    <glyph glyph-name="afii10104" unicode="&#x457;" horiz-adv-x="322" 
d="M287 13c0 -11 -3 -13 -15 -13h-222c-12 0 -15 2 -15 13v36c0 11 3 14 15 14h73v415h-73c-13 0 -15 4 -15 15v35c0 11 3 14 15 14h222c12 0 15 -2 15 -14v-35c0 -11 -3 -15 -15 -15h-72v-415h72c12 0 15 -2 15 -14v-36zM298 650c0 -29 -24 -53 -54 -53
c-29 0 -53 24 -53 54c0 29 24 53 54 53c29 0 53 -24 53 -54zM131 650c0 -29 -24 -53 -53 -53c-30 0 -54 24 -54 54c0 29 24 53 54 53c29 0 53 -24 53 -54z" />
    <glyph glyph-name="afii10017" unicode="&#x410;" horiz-adv-x="603" 
d="M593 53v-41c0 -11 -6 -12 -12 -12h-202c-11 0 -12 6 -12 12v41c0 6 1 12 12 12h62l-39 139h-205l-38 -139h64c11 0 12 -6 12 -12v-41c0 -11 -6 -12 -12 -12h-201c-11 0 -12 6 -12 12v41c0 11 6 12 12 12h49l186 609c4 12 10 11 15 11h59c5 0 11 1 15 -11l185 -609h50
c6 0 12 -1 12 -12zM383 274l-60 221c-11 41 -17 60 -23 95h-2c-5 -25 -13 -68 -21 -95l-61 -221h167z" />
    <glyph glyph-name="afii10018" unicode="&#x411;" horiz-adv-x="574" 
d="M125 620h-63c-11 0 -12 6 -12 12v41c0 6 1 12 12 12h411c11 0 12 -6 12 -12v-171c0 -12 -6 -12 -11 -12h-46c-6 0 -11 0 -11 12v113h-210v-219h98c140 0 219 -78 219 -202c0 -181 -149 -194 -241 -194h-221c-6 0 -12 1 -12 12v41c0 11 6 12 12 12h63v555zM207 70h97
c81 0 130 47 130 127c0 126 -112 129 -135 129h-92v-256z" />
    <glyph glyph-name="afii10019" unicode="&#x412;" horiz-adv-x="556" 
d="M115 620h-63c-11 0 -12 6 -12 12v41c0 6 1 12 12 12h250c139 0 180 -76 180 -163c0 -72 -29 -126 -99 -163c71 -17 123 -73 123 -170c0 -54 -19 -100 -46 -130c-48 -52 -114 -59 -165 -59h-243c-11 0 -12 6 -12 12v41c0 11 6 12 12 12h63v555zM197 383h63
c28 0 72 2 102 34c15 16 30 44 30 96c0 19 -4 51 -22 73c-24 28 -56 29 -89 29h-84v-232zM197 70h89c28 0 71 2 102 38c15 17 28 44 28 84s-12 72 -42 97c-29 23 -59 27 -93 27h-84v-246z" />
    <glyph glyph-name="afii10020" unicode="&#x413;" horiz-adv-x="463" 
d="M114 620h-63c-11 0 -12 6 -12 12v41c0 6 1 12 12 12h378c11 0 12 -6 12 -12v-171c0 -11 -6 -12 -12 -12h-44c-6 0 -12 1 -12 12v113h-177v-550h80c11 0 12 -6 12 -12v-41c0 -6 -1 -12 -12 -12h-225c-6 0 -12 1 -12 12v41c0 11 6 12 12 12h63v555z" />
    <glyph glyph-name="afii10021" unicode="&#x414;" horiz-adv-x="611" 
d="M497 620v-550h55c24 0 20 -6 20 -18v-228c0 -11 -6 -12 -12 -12h-58c-6 0 -12 1 -12 12v176h-381v-176c0 -11 -6 -12 -12 -12h-58c-6 0 -12 1 -12 12v228c0 12 -4 18 20 18h34c52 105 80 210 92 319c9 83 6 154 6 213v18h-63c-11 0 -12 6 -12 12v41c0 6 1 12 12 12h444
c11 0 12 -6 12 -12v-41c0 -11 -6 -12 -12 -12h-63zM415 615h-161v-55c0 -89 -2 -182 -24 -288c-15 -74 -37 -139 -66 -202h251v545z" />
    <glyph glyph-name="afii10022" unicode="&#x415;" horiz-adv-x="481" 
d="M449 159v-147c0 -11 -6 -12 -12 -12h-385c-11 0 -12 6 -12 12v41c0 11 6 12 12 12h63v555h-63c-11 0 -12 6 -12 12v41c0 6 1 12 12 12h378c11 0 12 -6 12 -12v-138c0 -6 -1 -12 -12 -12h-44c-11 0 -12 6 -12 12v80h-177v-222h197c11 0 12 -6 12 -12v-46
c0 -11 -6 -12 -12 -12h-197v-253h184v89c0 6 1 12 12 12h44c11 0 12 -6 12 -12z" />
    <glyph glyph-name="afii10024" unicode="&#x416;" horiz-adv-x="802" 
d="M360 321h-54c-38 0 -65 -8 -84 -86l-25 -101c-11 -44 -18 -79 -36 -102c-11 -14 -36 -36 -84 -42l-15 -2c-21 -3 -27 -7 -32 9l-15 48c-2 5 -4 13 14 16l19 3c40 6 47 26 59 69l37 136c6 21 20 65 78 88c-51 27 -62 72 -74 117l-15 56c-22 83 -32 86 -67 93l-15 3
c-18 4 -16 9 -14 17l14 45c4 14 13 11 19 10l11 -2c26 -5 57 -13 80 -38c22 -24 34 -64 45 -107l19 -74c21 -81 47 -86 81 -86h54v229h-63c-11 0 -12 6 -12 12v41c0 6 1 12 12 12h208c11 0 12 -6 12 -12v-41c0 -6 -1 -12 -12 -12h-63v-229h54c34 0 60 5 81 86l19 74
c11 43 23 83 45 107c23 25 54 33 80 38l11 2c6 1 15 4 19 -10l14 -45c2 -8 4 -13 -14 -17l-15 -3c-35 -7 -45 -10 -67 -93l-15 -56c-12 -45 -23 -90 -74 -117c58 -23 72 -67 78 -88l37 -136c12 -43 19 -63 59 -69l19 -3c18 -3 16 -11 14 -16l-15 -48c-5 -16 -11 -12 -32 -9
l-15 2c-48 6 -73 28 -84 42c-18 23 -25 58 -36 102l-25 101c-19 78 -46 86 -84 86h-54v-256h63c6 0 12 -1 12 -12v-41c0 -11 -6 -12 -12 -12h-208c-6 0 -12 1 -12 12v41c0 6 1 12 12 12h63v256z" />
    <glyph glyph-name="afii10025" unicode="&#x417;" horiz-adv-x="478" 
d="M126 604v-85c0 -6 -1 -12 -12 -12h-44c-11 0 -12 6 -12 12v111c0 7 -2 15 34 35c27 15 78 34 136 34c66 0 107 -22 132 -47c31 -31 49 -82 49 -130c0 -59 -27 -133 -101 -160c45 -12 120 -50 120 -167c0 -66 -24 -115 -51 -145c-20 -23 -70 -64 -162 -64
c-56 0 -117 19 -152 44c-21 15 -18 18 -18 33v104c0 11 6 12 12 12h44c11 0 12 -6 12 -12v-86l11 -6c29 -16 58 -22 86 -22c55 0 87 23 103 43c14 18 25 47 25 91c0 30 -7 66 -26 91c-27 36 -65 41 -94 41h-44c-6 0 -12 1 -12 12v43c0 5 0 12 13 12h18c19 0 66 2 99 35
c12 12 31 40 31 89c0 30 -9 63 -24 84c-16 22 -42 38 -81 38c-36 0 -68 -14 -85 -24z" />
    <glyph glyph-name="afii10026" unicode="&#x418;" horiz-adv-x="648" 
d="M114 620h-63c-11 0 -12 6 -12 12v41c0 6 1 12 12 12h208c11 0 12 -6 12 -12v-41c0 -6 -1 -12 -12 -12h-63v-328c0 -21 -1 -33 -2 -108h3c21 52 36 72 57 106l198 320v10h-63c-11 0 -12 6 -12 12v41c0 6 1 12 12 12h208c6 0 12 -1 12 -12v-41c0 -11 -6 -12 -12 -12h-63
v-555h63c6 0 12 -1 12 -12v-41c0 -11 -6 -12 -12 -12h-208c-6 0 -12 1 -12 12v41c0 6 1 12 12 12h63v328c0 22 1 30 2 108h-3c-18 -48 -34 -72 -54 -105l-201 -321v-10h63c11 0 12 -6 12 -12v-41c0 -11 -6 -12 -12 -12h-208c-6 0 -12 1 -12 12v41c0 11 6 12 12 12h63v555z
" />
    <glyph glyph-name="afii10027" unicode="&#x419;" horiz-adv-x="648" 
d="M114 620h-63c-11 0 -12 6 -12 12v41c0 6 1 12 12 12h208c11 0 12 -6 12 -12v-41c0 -6 -1 -12 -12 -12h-63v-328c0 -21 -1 -33 -2 -108h3c21 52 36 72 57 106l198 320v10h-63c-11 0 -12 6 -12 12v41c0 6 1 12 12 12h208c6 0 12 -1 12 -12v-41c0 -11 -6 -12 -12 -12h-63
v-555h63c6 0 12 -1 12 -12v-41c0 -11 -6 -12 -12 -12h-208c-6 0 -12 1 -12 12v41c0 6 1 12 12 12h63v328c0 22 1 30 2 108h-3c-18 -48 -34 -72 -54 -105l-201 -321v-10h63c11 0 12 -6 12 -12v-41c0 -11 -6 -12 -12 -12h-208c-6 0 -12 1 -12 12v41c0 11 6 12 12 12h63v555z
M258 852l3 -15c4 -20 15 -55 63 -55s59 35 63 55l3 15c2 12 11 9 17 8l36 -6c3 0 10 -2 11 -12v-2c-1 -21 -24 -111 -130 -111s-129 90 -130 111v2c1 10 8 12 11 12l36 6c6 1 15 4 17 -8z" />
    <glyph glyph-name="afii10028" unicode="&#x41a;" horiz-adv-x="571" 
d="M114 620h-63c-11 0 -12 6 -12 12v41c0 6 1 12 12 12h208c11 0 12 -6 12 -12v-41c0 -6 -1 -12 -12 -12h-63v-229h68c34 0 60 5 81 86l19 74c28 110 54 132 125 145l11 2c2 0 4 1 6 1c7 0 11 -3 13 -11l14 -45c2 -8 4 -13 -14 -17l-15 -3c-35 -7 -45 -10 -67 -93l-15 -56
c-12 -45 -23 -90 -74 -117c58 -23 72 -67 78 -88l37 -136c12 -43 19 -63 59 -69l19 -3c18 -3 16 -11 14 -16l-15 -48c-3 -10 -5 -11 -12 -11s-13 1 -20 2l-15 2c-48 6 -73 28 -84 42c-18 23 -25 58 -36 102l-25 101c-19 78 -46 86 -84 86h-68v-256h63c11 0 12 -6 12 -12v-41
c0 -11 -6 -12 -12 -12h-208c-6 0 -12 1 -12 12v41c0 11 6 12 12 12h63v555z" />
    <glyph glyph-name="afii10029" unicode="&#x41b;" horiz-adv-x="608" 
d="M412 615h-161v-18c0 -83 -4 -229 -14 -327c-6 -64 -20 -182 -83 -240c-28 -26 -62 -37 -92 -42c-19 -3 -33 -5 -36 7l-15 52c-3 10 0 19 10 20l11 1c77 7 98 55 111 101c18 62 21 117 24 167c4 65 9 122 9 199v85h-63c-11 0 -12 6 -12 12v41c0 6 1 12 12 12h444
c11 0 12 -6 12 -12v-41c0 -11 -6 -12 -12 -12h-63v-555h63c6 0 12 -1 12 -12v-41c0 -11 -6 -12 -12 -12h-208c-6 0 -12 1 -12 12v41c0 6 1 12 12 12h63v550z" />
    <glyph glyph-name="afii10030" unicode="&#x41c;" horiz-adv-x="708" 
d="M531 65l-13 430v95h-2c-3 -39 -4 -47 -12 -71l-120 -348c-1 -4 -3 -11 -15 -11h-30c-12 0 -14 7 -15 11l-120 348c-8 24 -9 32 -12 71h-2v-95l-13 -430h70c11 0 12 -6 12 -12v-41c0 -11 -6 -12 -12 -12h-205c-6 0 -12 1 -12 12v41c0 11 6 12 12 12h56l31 555h-70
c-11 0 -12 6 -12 12v41c0 6 1 12 12 12h148c9 0 12 -8 13 -10l118 -345c7 -21 10 -30 15 -62h2c5 32 8 41 15 62l118 345c1 2 4 10 13 10h148c11 0 12 -6 12 -12v-41c0 -11 -6 -12 -12 -12h-70l31 -555h56c6 0 12 -1 12 -12v-41c0 -11 -6 -12 -12 -12h-205
c-6 0 -12 1 -12 12v41c0 6 1 12 12 12h70z" />
    <glyph glyph-name="afii10031" unicode="&#x41d;" horiz-adv-x="648" 
d="M609 53v-41c0 -11 -6 -12 -12 -12h-208c-6 0 -12 1 -12 12v41c0 6 1 12 12 12h63v256h-256v-256h63c11 0 12 -6 12 -12v-41c0 -11 -6 -12 -12 -12h-208c-6 0 -12 1 -12 12v41c0 11 6 12 12 12h63v555h-63c-11 0 -12 6 -12 12v41c0 6 1 12 12 12h208c11 0 12 -6 12 -12
v-41c0 -6 -1 -12 -12 -12h-63v-229h256v229h-63c-11 0 -12 6 -12 12v41c0 6 1 12 12 12h208c6 0 12 -1 12 -12v-41c0 -11 -6 -12 -12 -12h-63v-555h63c6 0 12 -1 12 -12z" />
    <glyph glyph-name="afii10032" unicode="&#x41e;" horiz-adv-x="556" 
d="M504 343c0 -307 -136 -357 -226 -357c-94 0 -226 51 -226 357c0 80 4 356 226 356c91 0 226 -50 226 -356zM278 53c142 0 136 197 136 290c0 135 -9 289 -136 289c-140 0 -136 -197 -136 -289c0 -93 -6 -290 136 -290z" />
    <glyph glyph-name="afii10033" unicode="&#x41f;" horiz-adv-x="628" 
d="M114 620h-63c-11 0 -12 6 -12 12v41c0 6 1 12 12 12h526c11 0 12 -6 12 -12v-41c0 -11 -6 -12 -12 -12h-63v-555h63c6 0 12 -1 12 -12v-41c0 -11 -6 -12 -12 -12h-208c-6 0 -12 1 -12 12v41c0 11 6 12 12 12h63v550h-236v-550h63c11 0 12 -6 12 -12v-41
c0 -11 -6 -12 -12 -12h-208c-6 0 -12 1 -12 12v41c0 11 6 12 12 12h63v555z" />
    <glyph glyph-name="afii10034" unicode="&#x420;" horiz-adv-x="505" 
d="M283 53v-41c0 -11 -6 -12 -12 -12h-219c-11 0 -12 6 -12 12v41c0 11 6 12 12 12h63v555h-63c-11 0 -12 6 -12 12v41c0 6 1 12 12 12h248c32 0 93 -4 136 -44c41 -38 49 -92 49 -138c0 -88 -31 -138 -60 -164c-28 -25 -76 -50 -156 -50h-72v-224h74c11 0 12 -6 12 -12z
M197 359h65c37 0 81 1 112 39c21 26 29 67 29 101c0 48 -14 75 -30 90c-28 26 -72 26 -99 26h-77v-256z" />
    <glyph glyph-name="afii10035" unicode="&#x421;" horiz-adv-x="481" 
d="M441 167v-104c0 -17 1 -20 -19 -33c-52 -34 -108 -44 -145 -44c-46 0 -120 15 -169 95s-56 192 -56 268c0 80 9 192 60 266c37 54 91 84 167 84c39 0 77 -8 123 -34c36 -20 34 -28 34 -35v-111c0 -6 -1 -12 -12 -12h-44c-11 0 -12 6 -12 12v85l-6 4c-19 13 -56 24 -87 24
c-47 0 -77 -22 -97 -56c-32 -54 -36 -132 -36 -198c0 -103 12 -201 37 -254c27 -56 77 -71 108 -71s58 13 77 23l9 5v86c0 6 1 12 12 12h44c11 0 12 -6 12 -12z" />
    <glyph glyph-name="afii10036" unicode="&#x422;" horiz-adv-x="480" 
d="M364 53v-41c0 -6 -1 -12 -12 -12h-224c-11 0 -12 6 -12 12v41c0 6 1 12 12 12h71v550h-106v-113c0 -6 -1 -12 -12 -12h-44c-6 0 -12 1 -12 12v171c0 6 1 12 12 12h406c11 0 12 -6 12 -12v-171c0 -12 -6 -12 -11 -12h-46c-6 0 -11 0 -11 12v113h-106v-550h71
c11 0 12 -6 12 -12z" />
    <glyph glyph-name="afii10037" unicode="&#x423;" horiz-adv-x="544" 
d="M485 620l-159 -500c-16 -49 -36 -90 -72 -113c-21 -13 -50 -21 -80 -21c-38 0 -74 10 -109 35c-14 10 -13 17 -10 24l21 43c2 4 3 7 10 7s12 -6 18 -11c13 -11 41 -31 70 -31c16 0 42 5 60 31c10 14 19 38 29 73l10 36h-35c-12 0 -14 5 -17 14l-158 413h-41
c-11 0 -12 6 -12 12v42c0 6 0 11 12 11h190c11 0 11 -6 11 -11v-42c0 -12 -6 -12 -11 -12h-61l103 -270c11 -29 25 -75 34 -109h3c12 58 25 96 33 122l80 257h-53c-11 0 -12 6 -12 12v42c0 6 0 11 12 11h175c12 0 12 -5 12 -11v-42c0 -11 -6 -12 -12 -12h-41z" />
    <glyph glyph-name="afii10038" unicode="&#x424;" horiz-adv-x="636" 
d="M422 0h-208c-11 0 -12 6 -12 12v41c0 11 6 12 12 12h63v58h-15c-109 0 -159 53 -178 81c-32 46 -34 101 -34 145c0 45 2 98 34 145c48 70 124 81 178 81h15v58h-63c-11 0 -12 6 -12 12v41c0 6 1 12 12 12h208c11 0 12 -6 12 -12v-41c0 -6 -1 -12 -12 -12h-63v-58h15
c54 0 130 -11 178 -81c32 -47 34 -100 34 -145c0 -44 -2 -99 -34 -145c-19 -28 -69 -81 -178 -81h-15v-58h63c11 0 12 -6 12 -12v-41c0 -11 -6 -12 -12 -12zM359 513v-328h9c32 0 79 5 108 43c21 27 28 78 28 121c0 41 -7 93 -28 121c-29 38 -76 43 -108 43h-9zM277 185v328
h-9c-32 0 -79 -5 -108 -43c-21 -28 -28 -80 -28 -121c0 -43 7 -94 28 -121c29 -38 76 -43 108 -43h9z" />
    <glyph glyph-name="afii10039" unicode="&#x425;" horiz-adv-x="556" 
d="M543 53v-41c0 -11 -6 -12 -12 -12h-192c-11 0 -12 6 -12 12v41c0 6 1 12 12 12h54l-95 179c-11 21 -6 12 -21 47l-20 -46l-95 -180h53c11 0 12 -6 12 -12v-41c0 -6 -1 -12 -12 -12h-190c-11 0 -12 6 -12 12v41c0 11 6 12 12 12h47l158 292l-144 263h-46
c-11 0 -12 6 -12 12v41c0 6 1 12 12 12h192c11 0 12 -6 12 -12v-41c0 -6 -1 -12 -12 -12h-56l78 -143l25 -52c11 28 20 44 26 56l74 139h-47c-11 0 -12 6 -12 12v41c0 6 1 12 12 12h181c11 0 12 -6 12 -12v-41c0 -11 -6 -12 -12 -12h-45l-146 -260l163 -295h46
c6 0 12 -1 12 -12z" />
    <glyph glyph-name="afii10040" unicode="&#x426;" horiz-adv-x="636" 
d="M207 70h233v550h-63c-11 0 -12 6 -12 12v41c0 6 1 12 12 12h208c11 0 12 -6 12 -12v-41c0 -11 -6 -12 -12 -12h-63v-550h55c24 0 20 -6 20 -18v-228c0 -11 -6 -12 -12 -12h-58c-6 0 -12 1 -12 12v176h-453c-6 0 -12 1 -12 12v41c0 11 6 12 12 12h63v555h-63
c-11 0 -12 6 -12 12v41c0 6 1 12 12 12h208c11 0 12 -6 12 -12v-41c0 -6 -1 -12 -12 -12h-63v-550z" />
    <glyph glyph-name="afii10041" unicode="&#x427;" horiz-adv-x="614" 
d="M418 372v248h-63c-6 0 -12 1 -12 12v41c0 6 1 12 12 12h208c11 0 12 -6 12 -12v-41c0 -6 -1 -12 -12 -12h-63v-555h63c6 0 12 -1 12 -12v-41c0 -11 -6 -12 -12 -12h-208c-6 0 -12 1 -12 12v41c0 6 1 12 12 12h63v240c-52 -22 -99 -33 -145 -33c-89 0 -178 39 -178 165
v183h-63c-11 0 -12 6 -12 12v41c0 6 1 12 12 12h208c11 0 12 -6 12 -12v-41c0 -6 -1 -12 -12 -12h-63v-183c0 -25 5 -98 102 -98c45 0 87 10 139 33z" />
    <glyph glyph-name="afii10042" unicode="&#x428;" horiz-adv-x="844" 
d="M381 70v603c0 6 1 12 12 12h58c11 0 12 -6 12 -12v-603h185v550h-63c-6 0 -12 1 -12 12v41c0 6 1 12 12 12h208c11 0 12 -6 12 -12v-41c0 -6 -1 -12 -12 -12h-63v-555h63c6 0 12 -1 12 -12v-41c0 -11 -6 -12 -12 -12h-742c-6 0 -12 1 -12 12v41c0 11 6 12 12 12h63v555
h-63c-11 0 -12 6 -12 12v41c0 6 1 12 12 12h208c11 0 12 -6 12 -12v-41c0 -6 -1 -12 -12 -12h-63v-550h185z" />
    <glyph glyph-name="afii10043" unicode="&#x429;" horiz-adv-x="844" 
d="M381 70v603c0 6 1 12 12 12h58c11 0 12 -6 12 -12v-603h185v550h-63c-6 0 -12 1 -12 12v41c0 6 1 12 12 12h208c11 0 12 -6 12 -12v-41c0 -6 -1 -12 -12 -12h-63v-550h55c24 0 20 -6 20 -18v-228c0 -11 -6 -12 -12 -12h-58c-6 0 -12 1 -12 12v176h-672c-6 0 -12 1 -12 12
v41c0 11 6 12 12 12h63v555h-63c-11 0 -12 6 -12 12v41c0 6 1 12 12 12h208c11 0 12 -6 12 -12v-41c0 -6 -1 -12 -12 -12h-63v-550h185z" />
    <glyph glyph-name="afii10044" unicode="&#x42a;" horiz-adv-x="631" 
d="M289 396h98c42 0 98 -7 145 -40c38 -27 74 -76 74 -162c0 -74 -31 -116 -46 -133c-30 -34 -80 -61 -164 -61h-260c-6 0 -12 1 -12 12v41c0 6 1 12 12 12h71v550h-106v-113c0 -6 -1 -12 -12 -12h-44c-6 0 -12 1 -12 12v171c0 6 1 12 12 12h307c11 0 12 -6 12 -12v-41
c0 -6 -1 -12 -12 -12h-63v-224zM289 70h97c32 0 67 5 96 33c26 25 34 57 34 94c0 45 -11 73 -38 97c-28 25 -58 32 -97 32h-92v-256z" />
    <glyph glyph-name="afii10045" unicode="&#x42b;" horiz-adv-x="796" 
d="M196 396h98c42 0 98 -7 145 -40c38 -27 74 -76 74 -162c0 -74 -31 -116 -46 -133c-30 -34 -80 -61 -165 -61h-251c-6 0 -12 1 -12 12v41c0 11 6 12 12 12h63v555h-63c-11 0 -12 6 -12 12v41c0 6 1 12 12 12h208c11 0 12 -6 12 -12v-41c0 -6 -1 -12 -12 -12h-63v-224z
M196 70h97c81 0 130 47 130 127c0 126 -112 129 -135 129h-92v-256zM600 620h-63c-6 0 -12 1 -12 12v41c0 11 6 12 12 12h208c11 0 12 -6 12 -12v-41c0 -11 -6 -12 -12 -12h-63v-555h63c11 0 12 -6 12 -12v-41c0 -11 -6 -12 -12 -12h-208c-6 0 -12 1 -12 12v41
c0 11 6 12 12 12h63v555z" />
    <glyph glyph-name="afii10046" unicode="&#x42c;" horiz-adv-x="538" 
d="M196 396h98c42 0 98 -7 145 -40c38 -27 74 -76 74 -162c0 -74 -31 -116 -46 -133c-42 -48 -105 -61 -167 -61h-249c-6 0 -12 1 -12 12v41c0 11 6 12 12 12h63v555h-63c-11 0 -12 6 -12 12v41c0 6 1 12 12 12h208c11 0 12 -6 12 -12v-41c0 -6 -1 -12 -12 -12h-63v-224z
M196 70h97c30 0 67 3 98 36c28 30 32 65 32 90c0 43 -12 74 -38 98c-32 28 -70 32 -97 32h-92v-256z" />
    <glyph glyph-name="afii10047" unicode="&#x42d;" horiz-adv-x="487" 
d="M139 338v43c0 11 6 12 12 12h198c1 37 -3 135 -42 191c-26 37 -62 48 -94 48c-25 0 -58 -7 -81 -19l-14 -7v-87c0 -6 -1 -12 -12 -12h-44c-11 0 -12 6 -12 12v111c0 10 0 14 35 35c18 10 63 34 122 34c53 0 128 -19 174 -92c41 -66 56 -176 56 -258
c0 -128 -26 -210 -55 -261c-46 -80 -114 -102 -173 -102c-42 0 -98 14 -145 44c-20 13 -19 17 -19 33v104c0 11 6 12 12 12h44c11 0 12 -6 12 -12v-89l8 -4c12 -6 46 -21 80 -21c77 0 106 59 116 82c21 49 30 126 30 177v14h-196c-6 0 -12 1 -12 12z" />
    <glyph glyph-name="afii10048" unicode="&#x42e;" horiz-adv-x="813" 
d="M196 391h119c1 38 7 96 23 147c30 94 88 161 197 161c89 0 226 -50 226 -356s-136 -357 -226 -357c-104 0 -164 62 -196 162c-21 67 -24 138 -24 173h-119v-256h63c11 0 12 -6 12 -12v-41c0 -11 -6 -12 -12 -12h-208c-6 0 -12 1 -12 12v41c0 11 6 12 12 12h63v555h-63
c-11 0 -12 6 -12 12v41c0 6 1 12 12 12h208c11 0 12 -6 12 -12v-41c0 -6 -1 -12 -12 -12h-63v-229zM535 53c142 0 136 201 136 290c0 132 -9 289 -136 289c-119 0 -130 -150 -130 -289c0 -140 9 -290 130 -290z" />
    <glyph glyph-name="afii10049" unicode="&#x42f;" horiz-adv-x="559" 
d="M363 312h-65c-58 0 -73 -51 -84 -86l-30 -98c-20 -66 -23 -123 -118 -138l-13 -2c-21 -3 -27 -7 -32 9l-15 48c-2 5 -4 13 14 16l19 3c33 5 44 18 58 62l36 118c12 39 27 67 67 92c-82 17 -125 83 -125 164c0 114 78 185 203 185h230c11 0 12 -6 12 -12v-41
c0 -6 -1 -12 -12 -12h-63v-555h63c6 0 12 -1 12 -12v-41c0 -11 -6 -12 -12 -12h-208c-6 0 -12 1 -12 12v41c0 6 1 12 12 12h63v247zM363 377v238h-77c-44 0 -129 -10 -129 -114c0 -126 105 -124 141 -124h65z" />
    <glyph glyph-name="afii10065" unicode="&#x430;" horiz-adv-x="527" 
d="M517 12c0 -7 -5 -12 -13 -12h-175c-8 0 -12 4 -12 12v38c0 8 3 13 12 13h48l-29 95h-173l-30 -95h51c8 0 13 -5 13 -13v-38c0 -8 -5 -12 -13 -12h-174c-9 0 -12 5 -12 12v38c0 8 3 13 12 13h42l158 468c3 9 5 11 15 11h52c11 0 12 -2 15 -11l158 -468h42
c8 0 13 -5 13 -13v-38zM327 224l-48 161c-9 30 -14 49 -18 66c-5 -20 -10 -43 -17 -65l-49 -162h132z" />
    <glyph glyph-name="afii10066" unicode="&#x431;" horiz-adv-x="493" 
d="M105 478h-53c-7 0 -11 2 -11 11v42c0 10 5 11 12 11h342c8 0 12 -4 12 -12v-137c0 -9 -4 -11 -11 -11h-43c-7 0 -11 2 -11 11v85h-160v-161h74c42 0 102 -5 147 -46c35 -32 45 -70 45 -109c0 -61 -23 -97 -44 -117c-44 -42 -111 -45 -149 -45h-204c-9 0 -10 6 -10 11v42
c0 9 6 10 10 10h54v415zM182 64h56c32 0 77 1 103 25c12 11 25 32 25 67c0 38 -14 60 -28 73c-27 25 -65 25 -96 25h-60v-190z" />
    <glyph glyph-name="afii10067" unicode="&#x432;" horiz-adv-x="493" 
d="M448 151c0 -41 -14 -76 -38 -102c-46 -50 -110 -49 -172 -49h-185c-9 0 -12 5 -12 12v38c0 8 3 13 12 13h52v415h-52c-9 0 -12 6 -12 14v38c0 8 3 12 12 12h200c72 0 106 -8 135 -33c25 -22 40 -59 40 -97c0 -57 -28 -103 -80 -128c26 -7 39 -13 54 -26
c30 -25 46 -64 46 -107zM345 400c0 55 -24 78 -93 78h-70v-170h52c78 0 111 24 111 92zM366 155c0 62 -38 90 -114 90h-70v-181h74c74 0 110 31 110 91z" />
    <glyph glyph-name="afii10068" unicode="&#x433;" horiz-adv-x="429" 
d="M404 397c0 -8 -5 -13 -13 -13h-39c-7 0 -13 5 -13 13v77h-157v-411h61c9 0 13 -5 13 -13v-38c0 -7 -4 -12 -13 -12h-190c-9 0 -12 5 -12 12v38c0 8 3 13 12 13h52v415h-52c-9 0 -12 6 -12 14v38c0 8 3 12 12 12h336c12 0 15 -4 15 -15v-130z" />
    <glyph glyph-name="afii10069" unicode="&#x434;" horiz-adv-x="515" 
d="M412 478v-415h43c9 0 16 -2 16 -14v-189c0 -10 -2 -15 -13 -15h-47c-10 0 -15 1 -15 14v141h-301v-141c0 -11 -3 -14 -14 -14h-48c-11 0 -13 5 -13 14v188c0 9 0 16 12 16h31c46 84 61 159 67 193c10 63 10 131 10 207v15h-52c-12 0 -12 5 -12 14v38c0 9 6 12 11 12h377
c10 0 12 -4 12 -12v-38c0 -6 -1 -14 -11 -14h-53zM337 478h-128v-35c0 -74 -2 -136 -12 -198c-14 -80 -39 -142 -59 -181h199v414z" />
    <glyph glyph-name="afii10070" unicode="&#x435;" horiz-adv-x="434" 
d="M399 13c0 -11 -4 -13 -15 -13h-331c-9 0 -12 5 -12 12v38c0 8 3 13 12 13h52v415h-52c-9 0 -12 6 -12 14v38c0 8 3 12 12 12h326c12 0 14 -4 14 -15v-105c0 -8 -4 -13 -12 -13h-39c-8 0 -14 4 -14 13v52h-146v-160h166c12 0 14 -4 14 -15v-37c0 -11 -3 -13 -14 -13h-166
v-182h153v60c0 8 4 13 12 13h39c9 0 13 -5 13 -13v-114z" />
    <glyph glyph-name="afii10072" unicode="&#x436;" horiz-adv-x="680" 
d="M426 542c5 0 15 -1 15 -12v-38c0 -13 -8 -14 -15 -14h-49v-164h33c19 0 42 1 58 15c11 9 19 26 27 57l14 54c7 25 13 57 36 80c9 9 28 23 62 30l5 1c23 5 26 1 28 -7l15 -46c3 -10 -5 -13 -11 -14l-10 -2c-13 -3 -29 -6 -40 -18c-10 -11 -14 -28 -19 -45l-12 -45
c-6 -21 -9 -41 -23 -61c-12 -18 -27 -26 -39 -31c19 -5 32 -15 40 -23c18 -18 23 -38 28 -55l24 -87c9 -31 16 -42 21 -47c11 -12 28 -14 38 -15l11 -1c5 0 10 -4 7 -13l-13 -43c-3 -8 -5 -11 -29 -8l-8 1c-25 3 -50 9 -70 31c-19 21 -27 51 -32 72l-21 83
c-5 21 -12 43 -25 55c-17 16 -44 17 -58 17h-37v-185h51c11 0 13 -5 13 -14v-38c0 -7 -5 -12 -13 -12h-178c-7 0 -11 6 -11 13v37c0 10 5 14 12 14h52v185h-37c-14 0 -41 -1 -58 -17c-13 -12 -20 -34 -25 -55l-21 -83c-5 -21 -13 -51 -32 -72c-20 -22 -45 -28 -70 -31l-8 -1
c-24 -3 -26 0 -29 8l-13 43c-3 9 2 13 7 13l11 1c10 1 27 3 38 15c5 5 12 16 21 47l24 87c5 17 10 37 28 55c8 8 21 18 40 23c-12 5 -27 13 -39 31c-14 20 -17 40 -23 61l-12 45c-5 17 -9 34 -19 45c-11 12 -27 15 -40 18l-10 2c-6 1 -14 4 -11 14l15 46c2 8 5 12 28 7l5 -1
c34 -7 53 -21 62 -30c23 -23 29 -55 36 -80l14 -54c8 -31 16 -48 27 -57c16 -14 39 -15 58 -15h33v164h-49c-8 0 -15 2 -15 14v37c0 4 1 13 14 13h173z" />
    <glyph glyph-name="afii10073" unicode="&#x437;" horiz-adv-x="436" 
d="M117 467v-56c0 -6 -1 -15 -13 -15h-40c-9 0 -12 5 -12 13v73c0 9 4 15 10 21c14 15 37 26 56 33c29 11 59 16 92 16c29 0 85 -4 127 -44c30 -29 39 -63 39 -100c0 -21 -3 -53 -23 -81c-10 -14 -27 -32 -57 -41c29 -7 49 -22 62 -36c29 -30 33 -61 33 -92
c0 -40 -9 -87 -46 -122c-40 -39 -97 -46 -141 -46c-35 0 -96 5 -145 38c-11 7 -14 11 -14 25v81c0 8 0 15 12 15h40c13 0 13 -7 13 -15v-60l12 -5c9 -4 40 -16 79 -16c33 0 61 10 79 27c13 13 27 36 27 75c0 22 -4 49 -27 69c-25 22 -55 23 -85 23h-29c-8 0 -13 1 -13 11v42
c0 8 4 10 11 10h21c40 0 69 10 86 26c12 11 24 31 24 64c0 35 -14 56 -26 67c-14 13 -38 22 -73 22c-28 0 -54 -7 -79 -22z" />
    <glyph glyph-name="afii10074" unicode="&#x438;" horiz-adv-x="581" 
d="M105 478h-54c-10 0 -10 7 -10 14v38c0 7 1 12 11 12h179c9 0 15 1 15 -12v-38c0 -7 0 -14 -9 -14h-55v-201c0 -18 0 -37 -2 -107h3c21 38 35 55 52 77l164 219v12h-53c-10 0 -11 8 -11 14v38c0 9 6 12 11 12h181c7 0 13 -2 13 -12v-38c0 -8 -1 -14 -13 -14h-51v-415h51
c9 0 13 -4 13 -13v-38c0 -10 -2 -12 -14 -12h-179c-8 0 -12 2 -12 12v38c0 7 2 13 12 13h52v210c0 18 1 38 2 99h-3c-15 -34 -30 -56 -51 -83l-165 -214v-12h50c11 0 14 -4 14 -13v-38c0 -8 -4 -12 -12 -12h-182c-5 0 -11 3 -11 12v38c0 7 2 13 12 13h52v415z" />
    <glyph glyph-name="afii10075" unicode="&#x439;" horiz-adv-x="581" 
d="M369 704l39 -7c6 -1 15 -5 9 -26c-6 -22 -15 -44 -34 -62c-28 -27 -64 -32 -91 -32c-26 0 -65 4 -94 32c-20 19 -28 43 -33 62c-6 21 3 25 9 26l39 7c4 1 12 1 15 -10l3 -10c3 -11 7 -26 19 -38c10 -11 24 -16 41 -16s31 5 41 16c12 12 16 27 19 38l3 10
c3 11 11 11 15 10zM105 478h-54c-10 0 -10 7 -10 14v38c0 7 1 12 11 12h179c9 0 15 1 15 -12v-38c0 -7 0 -14 -9 -14h-55v-201c0 -18 0 -37 -2 -107h3c21 38 35 55 52 77l164 219v12h-53c-10 0 -11 8 -11 14v38c0 9 6 12 11 12h181c7 0 13 -2 13 -12v-38
c0 -8 -1 -14 -13 -14h-51v-415h51c9 0 13 -4 13 -13v-38c0 -10 -2 -12 -14 -12h-179c-8 0 -12 2 -12 12v38c0 7 2 13 12 13h52v210c0 18 1 38 2 99h-3c-15 -34 -30 -56 -51 -83l-165 -214v-12h50c11 0 14 -4 14 -13v-38c0 -8 -4 -12 -12 -12h-182c-5 0 -11 3 -11 12v38
c0 7 2 13 12 13h52v415z" />
    <glyph glyph-name="afii10076" unicode="&#x43a;" 
d="M105 478h-53c-10 0 -11 8 -11 14v37c0 7 2 13 12 13h180c9 0 13 -4 13 -13v-37c0 -7 -1 -14 -12 -14h-52v-164h51c15 0 38 1 56 18c16 16 23 42 27 63l8 40c6 29 13 62 36 85c19 19 46 27 63 30l5 1c11 2 24 5 28 -7l15 -46c2 -7 -2 -13 -11 -14l-9 -1
c-6 -1 -27 -3 -40 -17c-11 -12 -16 -29 -20 -47l-13 -54c-4 -18 -10 -38 -22 -54c-8 -11 -21 -23 -41 -29c14 -3 31 -11 43 -23c14 -14 21 -34 24 -46l30 -104c5 -18 10 -31 18 -39s23 -13 38 -15l10 -1c5 -1 9 -4 7 -13l-12 -43c-2 -9 -6 -11 -29 -8l-8 1
c-34 4 -56 17 -69 31c-21 22 -29 58 -36 84l-19 75c-4 16 -10 39 -25 52c-16 14 -38 16 -52 16h-53v-185h52c7 0 12 -4 12 -14v-37c0 -12 -6 -13 -14 -13h-179c-9 0 -12 5 -12 13v37c0 10 5 14 12 14h52v414z" />
    <glyph glyph-name="afii10077" unicode="&#x43b;" horiz-adv-x="529" 
d="M347 478h-134v-23c0 -54 -2 -144 -6 -208s-10 -163 -66 -218c-34 -33 -79 -40 -101 -40c-7 0 -13 1 -16 9l-14 44c-3 9 2 15 9 16l7 1c17 2 40 5 59 21c39 33 47 117 51 173c4 58 5 115 5 173v52h-51c-11 0 -13 5 -13 14v38c0 8 4 12 12 12h386c8 0 13 -3 13 -12v-38
c0 -7 -2 -14 -14 -14h-50v-415h51c12 0 13 -6 13 -13v-38c0 -8 -4 -12 -12 -12h-181c-8 0 -12 4 -12 12v38c0 3 0 13 10 13h54v415z" />
    <glyph glyph-name="afii10078" unicode="&#x43c;" horiz-adv-x="635" 
d="M598 12c0 -7 -4 -12 -13 -12h-177c-8 0 -13 4 -13 12v38c0 8 5 13 13 13h56l-11 326c0 5 -1 22 -1 38c-2 -11 -11 -35 -13 -41l-95 -250c-3 -9 -7 -11 -17 -11h-25c-10 0 -12 3 -15 11l-92 250c-2 6 -11 32 -14 44c0 -12 -1 -35 -1 -41l-10 -326h57c8 0 13 -5 13 -13v-38
c0 -8 -5 -12 -13 -12h-177c-9 0 -13 5 -13 12v38c0 8 4 13 13 13h45l27 415h-57c-8 0 -14 6 -14 14v38c0 9 6 12 14 12h126c11 0 12 -2 15 -11l99 -259c5 -13 9 -32 12 -45c3 13 9 36 12 45l100 259c3 8 4 11 14 11h127c8 0 13 -4 13 -12v-38c0 -8 -4 -14 -13 -14h-55
l27 -415h43c8 0 13 -5 13 -13v-38z" />
    <glyph glyph-name="afii10079" unicode="&#x43d;" horiz-adv-x="578" 
d="M537 12c0 -8 -5 -12 -13 -12h-180c-8 0 -14 4 -14 12v38c0 8 6 13 14 13h52v186h-214v-186h52c8 0 13 -5 13 -13v-38c0 -9 -5 -12 -13 -12h-181c-9 0 -12 5 -12 12v38c0 8 3 13 12 13h52v415h-52c-9 0 -12 6 -12 14v38c0 8 3 12 12 12h181c8 0 13 -4 13 -12v-38
c0 -8 -4 -14 -13 -14h-52v-164h214v164h-52c-9 0 -14 6 -14 14v38c0 8 6 12 14 12h180c9 0 13 -4 13 -12v-38c0 -8 -4 -14 -13 -14h-52v-415h52c9 0 13 -5 13 -13v-38z" />
    <glyph glyph-name="afii10080" unicode="&#x43e;" horiz-adv-x="498" 
d="M446 271c0 -182 -69 -281 -201 -281c-127 0 -193 96 -193 279c0 185 68 283 201 283c128 0 193 -96 193 -281zM362 269c0 76 -10 220 -111 220c-77 0 -117 -58 -117 -216c0 -79 8 -220 114 -220c75 0 114 56 114 216z" />
    <glyph glyph-name="afii10081" unicode="&#x43f;" horiz-adv-x="553" 
d="M512 50v-38c0 -7 -5 -12 -13 -12h-178c-10 0 -14 5 -14 12v38c0 7 4 13 14 13h50v414h-189v-414h51c9 0 13 -6 13 -13v-38c0 -10 -6 -12 -13 -12h-180c-8 0 -12 4 -12 12v38c0 8 3 13 12 13h52v415h-52c-11 0 -12 7 -12 14v38c0 8 4 12 12 12h446c8 0 13 -3 13 -12v-38
c0 -10 -6 -14 -13 -14h-51v-415h51c7 0 13 -4 13 -13z" />
    <glyph glyph-name="afii10082" unicode="&#x440;" horiz-adv-x="450" 
d="M430 396c0 -49 -15 -89 -43 -119c-40 -43 -90 -50 -147 -50h-58v-164h61c9 0 13 -5 13 -13v-38c0 -7 -4 -12 -13 -12h-190c-9 0 -12 5 -12 12v38c0 8 3 13 12 13h52v415h-52c-9 0 -12 6 -12 14v38c0 8 3 12 12 12h200c66 0 99 -7 126 -28c34 -27 51 -66 51 -118zM352 394
c0 32 -6 50 -21 62c-16 13 -42 20 -84 20h-65v-184h53c38 0 70 3 89 23c18 19 28 45 28 79z" />
    <glyph glyph-name="afii10083" unicode="&#x441;" horiz-adv-x="434" 
d="M392 47c0 -9 -2 -13 -9 -18c-34 -24 -85 -39 -130 -39c-133 0 -201 98 -201 286c0 181 66 276 195 276c46 0 101 -16 133 -39c7 -5 8 -9 8 -17v-87c0 -8 -3 -13 -12 -13h-39c-8 0 -14 5 -14 13v62c-28 13 -50 18 -75 18c-80 0 -114 -54 -114 -206
c0 -159 42 -230 120 -230c25 0 45 4 73 18v63c0 8 6 12 14 12h39c8 0 12 -5 12 -12v-87z" />
    <glyph glyph-name="afii10084" unicode="&#x442;" horiz-adv-x="407" 
d="M392 395c0 -9 -6 -11 -14 -11h-38c-8 0 -14 2 -14 11v83h-84v-415h57c8 0 13 -5 13 -13v-38c0 -8 -5 -12 -13 -12h-192c-8 0 -13 4 -13 12v38c0 8 5 13 13 13h58v415h-85v-83c0 -8 -5 -11 -12 -11h-39c-8 0 -14 2 -14 11v133c0 12 4 14 16 14h346c11 0 15 -5 15 -15v-132
z" />
    <glyph glyph-name="afii10085" unicode="&#x443;" horiz-adv-x="483" 
d="M413 478l-120 -366c-11 -33 -21 -66 -45 -91c-25 -26 -55 -31 -82 -31c-50 0 -79 18 -94 30l-4 3c-6 4 -6 9 -4 13l22 43c2 3 7 10 19 0l5 -4c20 -16 35 -22 53 -22c19 0 34 6 47 24c8 11 15 31 19 46l8 30h-22c-17 0 -20 7 -24 18l-121 307h-46c-11 0 -14 3 -14 14v38
c0 11 7 12 14 12h170c8 0 13 -3 13 -12v-38c0 -11 -1 -14 -14 -14h-46l74 -191c11 -30 19 -49 29 -86h2c11 42 19 67 29 96l61 181h-48c-11 0 -12 7 -12 14v38c0 8 2 12 12 12h166c10 0 13 -2 13 -12v-38c0 -9 -2 -14 -13 -14h-47z" />
    <glyph glyph-name="afii10086" unicode="&#x444;" horiz-adv-x="547" 
d="M361 0h-176c-7 0 -14 1 -14 12v33c0 8 2 15 14 15h50v46h-8c-46 0 -100 5 -143 46c-44 42 -49 99 -49 138c0 37 4 95 47 137c42 41 102 47 146 47h7v46h-47c-8 0 -17 1 -17 14v31c0 13 7 15 17 15h172c9 0 16 -2 16 -15v-31c0 -13 -8 -14 -16 -14h-48v-46h7
c45 0 103 -6 146 -47c40 -39 47 -91 47 -138c0 -35 -4 -93 -49 -137c-43 -41 -97 -46 -143 -46h-8v-46h49c8 0 15 -2 15 -14v-34c0 -11 -10 -12 -15 -12zM312 420v-260h8c17 0 54 1 81 25c33 30 33 79 33 106c0 36 -2 79 -29 105c-24 23 -53 24 -82 24h-11zM235 420h-11
c-29 0 -58 -1 -82 -24c-27 -26 -29 -69 -29 -105c0 -27 0 -76 33 -106c27 -24 64 -25 81 -25h8v260z" />
    <glyph glyph-name="afii10087" unicode="&#x445;" horiz-adv-x="462" 
d="M462 12c0 -8 -7 -12 -15 -12h-165c-8 0 -12 4 -12 12v38c0 8 3 13 12 13h37l-74 130c-5 9 -10 19 -15 30c-4 -9 -9 -17 -16 -30l-75 -130h37c7 0 14 -5 14 -13v-38c0 -8 -7 -12 -14 -12h-164c-9 0 -12 5 -12 12v38c0 8 3 13 12 13h43l131 220l-118 195h-42
c-9 0 -13 6 -13 14v38c0 8 5 12 13 12h165c8 0 13 -4 13 -12v-38c0 -8 -4 -14 -13 -14h-40l62 -101c8 -13 11 -24 17 -35c6 13 11 23 20 38l58 98h-32c-8 0 -13 6 -13 14v38c0 8 6 12 13 12h158c8 0 12 -4 12 -12v-38c0 -8 -4 -14 -12 -14h-43l-120 -194l134 -221h42
c8 0 15 -5 15 -13v-38z" />
    <glyph glyph-name="afii10088" unicode="&#x446;" horiz-adv-x="546" 
d="M177 63h187v415h-52c-11 0 -13 5 -13 14v38c0 9 5 12 13 12h180c8 0 13 -3 13 -12v-38c0 -12 -7 -14 -14 -14h-50v-415h43c12 0 16 -7 16 -14v-181c0 -8 -3 -13 -12 -13h-51c-11 0 -12 7 -12 14v131h-374c-9 0 -10 5 -10 12v38c0 3 0 13 10 13h49v415h-48
c-10 0 -11 8 -11 14v38c0 8 4 12 12 12h170c7 0 14 -1 14 -12v-38c0 -9 -2 -14 -13 -14h-47v-415z" />
    <glyph glyph-name="afii10089" unicode="&#x447;" horiz-adv-x="536" 
d="M354 299v179h-51c-11 0 -13 5 -13 14v38c0 7 5 12 13 12h179c8 0 13 -5 13 -12v-38c0 -9 -2 -14 -13 -14h-51v-415h49c6 0 15 -1 15 -13v-38c0 -5 -2 -12 -15 -12h-176c-7 0 -14 1 -14 12v38c0 4 1 13 14 13h50v173c-20 -10 -61 -26 -119 -26c-37 0 -89 8 -119 36
c-31 30 -35 71 -35 102v130h-51c-7 0 -13 4 -13 14v36c0 8 6 14 13 14h175c9 0 17 -6 17 -14v-36c0 -14 -9 -14 -17 -14h-47v-117c0 -24 2 -50 21 -68c17 -16 44 -20 69 -20c28 0 63 6 106 26z" />
    <glyph glyph-name="afii10090" unicode="&#x448;" horiz-adv-x="742" 
d="M333 63v467c0 11 7 12 14 12h49c7 0 14 -1 14 -12v-467h155v415h-47c-11 0 -13 5 -13 14v38c0 11 7 12 14 12h170c8 0 12 -4 12 -12v-38c0 -6 -1 -14 -11 -14h-48v-415h49c10 0 10 -10 10 -13v-38c0 -7 -1 -12 -10 -12h-640c-9 0 -10 5 -10 12v38c0 3 0 13 10 13h49v415
h-48c-10 0 -11 8 -11 14v38c0 8 4 12 12 12h170c7 0 14 -1 14 -12v-38c0 -9 -2 -14 -13 -14h-47v-415h156z" />
    <glyph glyph-name="afii10091" unicode="&#x449;" horiz-adv-x="742" 
d="M626 0h-576c-8 0 -9 7 -9 12v38c0 3 0 13 10 13h49v415h-48c-10 0 -11 8 -11 14v38c0 8 4 12 12 12h170c7 0 14 -1 14 -12v-38c0 -9 -2 -14 -13 -14h-47v-415h156v467c0 11 7 12 14 12h49c7 0 14 -1 14 -12v-467h155v415h-47c-11 0 -13 5 -13 14v38c0 11 7 12 14 12h170
c8 0 12 -4 12 -12v-38c0 -6 -1 -14 -11 -14h-48v-415h43c12 0 16 -7 16 -14v-181c0 -8 -3 -13 -12 -13h-51c-11 0 -12 7 -12 14v131z" />
    <glyph glyph-name="afii10092" unicode="&#x44a;" horiz-adv-x="527" 
d="M240 317h63c14 0 95 -1 145 -39c46 -35 54 -83 54 -120c0 -63 -25 -98 -46 -117c-41 -37 -99 -41 -144 -41h-199c-10 0 -14 5 -14 12v38c0 4 1 13 14 13h50v415h-83v-81c0 -9 -4 -13 -13 -13h-39c-9 0 -13 4 -13 13v133c0 8 4 12 12 12h263c4 0 14 -1 14 -12v-38
c0 -12 -7 -14 -14 -14h-50v-161zM240 63h53c26 0 73 2 100 26c16 15 27 40 27 69c0 33 -13 58 -28 71c-25 22 -67 25 -103 25h-49v-191z" />
    <glyph glyph-name="afii10093" unicode="&#x44b;" horiz-adv-x="694" 
d="M640 542c8 0 13 -3 13 -12v-38c0 -10 -6 -14 -13 -14h-52v-415h52c9 0 13 -6 13 -13v-38c0 -10 -6 -12 -13 -12h-181c-8 0 -12 4 -12 12v38c0 8 3 13 12 13h52v415h-52c-11 0 -12 7 -12 14v38c0 8 4 12 12 12h181zM182 317h61c14 0 95 -1 145 -39c46 -35 54 -83 54 -120
c0 -63 -25 -98 -46 -117c-41 -37 -99 -41 -144 -41h-197c-10 0 -14 5 -14 12v38c0 4 1 13 14 13h50v415h-50c-7 0 -14 2 -14 14v38c0 11 10 12 14 12h177c4 0 14 -1 14 -12v-38c0 -12 -7 -14 -14 -14h-50v-161zM182 63h53c26 0 73 2 100 26c16 15 27 40 27 70
c0 32 -13 56 -28 70c-25 22 -67 25 -103 25h-49v-191z" />
    <glyph glyph-name="afii10094" unicode="&#x44c;" horiz-adv-x="469" 
d="M232 542c4 0 14 -1 14 -12v-38c0 -12 -7 -14 -14 -14h-50v-161h63c14 0 95 -1 145 -39c46 -35 54 -83 54 -120c0 -63 -25 -98 -46 -117c-41 -37 -99 -41 -144 -41h-199c-10 0 -14 5 -14 12v38c0 4 1 13 14 13h50v415h-50c-7 0 -14 2 -14 14v38c0 11 10 12 14 12h177z
M182 63h53c26 0 73 2 100 26c16 15 27 40 27 70c0 32 -13 56 -28 70c-25 22 -67 25 -103 25h-49v-191z" />
    <glyph glyph-name="afii10095" unicode="&#x44d;" horiz-adv-x="436" 
d="M132 264v41c0 7 1 12 11 12h160v7c0 37 -6 101 -41 137c-23 24 -48 28 -75 28c-34 0 -57 -11 -69 -18l-5 -3v-52c0 -12 -3 -15 -15 -15h-34c-12 0 -16 2 -16 15v76c0 5 3 11 9 16l4 3c15 11 34 19 44 23c28 11 56 18 90 18c66 0 114 -26 148 -75c36 -52 41 -118 41 -202
c0 -91 -12 -180 -67 -236c-38 -38 -85 -49 -132 -49c-54 0 -92 15 -123 36l-3 2c-7 5 -11 11 -11 20v79c0 7 2 13 12 13h35c7 0 14 -2 14 -14v-55l7 -3c22 -10 37 -15 68 -15c22 0 54 3 78 27c28 28 40 83 40 165v7h-157c-8 0 -13 0 -13 12z" />
    <glyph glyph-name="afii10096" unicode="&#x44e;" horiz-adv-x="717" 
d="M472 552c33 0 83 -7 124 -46c62 -60 69 -175 69 -237c0 -56 -6 -168 -72 -231c-41 -40 -90 -48 -131 -48s-83 9 -121 47c-50 51 -69 138 -68 212h-91v-185h51c9 0 13 -6 13 -13v-39c0 -10 -6 -12 -13 -12h-180c-8 0 -12 4 -12 12v39c0 8 3 13 12 13h52v414h-52
c-11 0 -12 7 -12 14v38c0 8 4 12 12 12h180c8 0 13 -3 13 -12v-38c0 -10 -6 -14 -13 -14h-51v-164h92c2 63 22 144 70 191c37 36 82 47 128 47zM465 489c-28 0 -51 -10 -69 -30c-25 -26 -43 -75 -43 -190c0 -113 23 -165 50 -191c20 -19 40 -25 66 -25c27 0 51 7 71 30
c21 24 41 71 41 183c0 110 -19 168 -50 198c-20 19 -41 25 -66 25z" />
    <glyph glyph-name="afii10097" unicode="&#x44f;" horiz-adv-x="492" 
d="M310 240h-39c-13 0 -39 -1 -58 -18c-20 -17 -26 -48 -31 -66l-14 -55c-8 -30 -16 -61 -38 -82c-21 -20 -47 -25 -69 -28l-7 -1c-25 -4 -29 0 -32 8l-12 40c-2 8 0 14 12 16l8 1c13 2 29 7 39 15c12 10 19 28 28 60l13 46c5 17 9 36 25 59c10 14 20 24 37 31
c-24 5 -49 18 -67 35c-26 25 -35 57 -35 90c0 47 17 85 42 109c41 38 99 42 145 42h179c8 0 15 -1 15 -12v-38c0 -12 -7 -14 -14 -14h-50v-415h50c12 0 14 -2 14 -13v-38c0 -9 -5 -12 -13 -12h-181c-5 0 -11 3 -11 12v38c0 5 1 13 11 13h53v177zM310 304v174h-52
c-28 0 -61 -1 -86 -25c-15 -14 -25 -37 -25 -64c0 -28 11 -49 25 -62c24 -21 59 -23 87 -23h51z" />
    <glyph glyph-name="sterling" unicode="&#xa3;" horiz-adv-x="501" 
d="M191 372h137c6 0 12 -1 12 -12v-41c0 -11 -6 -12 -12 -12h-121l2 -8c12 -48 16 -81 16 -116c0 -49 -9 -92 -12 -105l-3 -13h270c18 0 15 -10 12 -16l-17 -39c-4 -10 -10 -10 -15 -10h-413c-6 0 -12 1 -12 12v41c0 11 6 12 12 12h87l2 8c12 48 13 97 13 112
c0 29 -1 67 -15 115l-2 7h-92c-6 0 -12 1 -12 12v41c0 11 6 12 12 12h78c-14 50 -17 72 -17 91c0 115 75 194 205 194c49 0 93 -10 131 -27c23 -10 21 -18 18 -24l-20 -41c-1 -2 -3 -5 -8 -6h-3c-5 1 -9 4 -21 9c-33 14 -61 22 -97 22c-92 0 -129 -58 -129 -113
c0 -21 5 -57 10 -84z" />
    <glyph glyph-name="florin" unicode="&#x192;" 
d="M282 422l-99 -448c-18 -83 -50 -176 -187 -176c-39 0 -81 6 -74 26l14 41c1 3 1 5 7 6c10 -1 14 -2 21 -4c13 -3 30 -4 41 -4c25 0 66 10 87 56c6 13 14 43 18 59l99 444h-69c-3 0 -8 1 -8 6c0 4 1 7 3 16l5 24c1 6 3 12 13 12h70l20 96c16 75 43 148 160 148
c29 0 70 -7 94 -19c14 -7 15 -10 14 -12l-1 -3l-18 -43c-2 -5 -4 -8 -19 -1c-9 4 -46 20 -74 20c-65 0 -76 -52 -86 -99l-18 -87h141c2 0 8 0 8 -6c0 -3 -2 -6 -3 -10l-11 -30c-2 -6 -4 -12 -13 -12h-135z" />
    <glyph glyph-name="acute" unicode="&#xb4;" 
d="M401 665c0 -3 -2 -4 -9 -8l-164 -85c-7 -4 -8 -4 -10 -4s-3 0 -9 8l-10 15c-3 5 -4 8 -4 10s2 5 8 9l145 111c5 4 8 5 10 5c4 0 5 -1 10 -8l29 -42c3 -5 4 -8 4 -11z" />
    <glyph glyph-name="dotaccent" unicode="&#x2d9;" 
d="M309 648c0 -33 -26 -59 -59 -59s-59 26 -59 59s27 59 60 59c32 0 58 -27 58 -59z" />
    <glyph glyph-name="dieresis" unicode="&#xa8;" horiz-adv-x="480" 
d="M382 650c0 -29 -24 -53 -54 -53c-29 0 -53 24 -53 54c0 29 24 53 54 53c29 0 53 -24 53 -54zM205 650c0 -29 -24 -53 -53 -53c-30 0 -54 24 -54 54c0 29 24 53 54 53c29 0 53 -24 53 -54z" />
    <glyph glyph-name="dotlessi" unicode="&#x131;" horiz-adv-x="322" 
d="M287 13c0 -11 -3 -13 -15 -13h-222c-12 0 -15 2 -15 13v36c0 11 3 14 15 14h73v415h-73c-13 0 -15 4 -15 15v35c0 11 3 14 15 14h222c12 0 15 -2 15 -14v-35c0 -11 -3 -15 -15 -15h-72v-415h72c12 0 15 -2 15 -14v-36z" />
    <glyph glyph-name="divide" unicode="&#xf7;" 
d="M305 427c0 -32 -26 -56 -56 -56c-32 0 -56 25 -56 56c0 32 24 56 56 56s56 -24 56 -56zM476 276v-44c0 -7 2 -14 -14 -14h-427c-7 0 -13 -2 -13 14v44c0 17 5 14 13 14h427c17 0 14 -5 14 -14zM305 81c0 -32 -26 -56 -56 -56c-32 0 -56 25 -56 56c0 32 24 56 56 56
s56 -24 56 -56z" />
    <glyph glyph-name="Acute" unicode="&#xf6c9;" horiz-adv-x="504" 
d="M145 776l164 102c2 1 6 3 8 3s5 -1 7 -4l29 -50c3 -5 3 -7 3 -9c0 -6 -8 -9 -11 -10l-172 -69c-4 -1 -8 -3 -11 -3c-2 0 -5 1 -7 4l-13 24c-2 3 -2 5 -2 6c0 3 3 5 5 6z" />
    <glyph glyph-name="Delta" unicode="&#x394;" horiz-adv-x="554" 
d="M320 674l204 -662c1 -3 2 -8 -2 -11c-2 -1 -5 -1 -10 -1h-475c-7 0 -13 0 -9 12l203 662c4 12 9 11 15 11h59c5 0 11 1 15 -11zM414 70l-138 497h-2l-142 -497h282z" />
    <glyph glyph-name="Delta" unicode="&#x2206;" horiz-adv-x="554" 
d="M320 674l204 -662c1 -3 2 -8 -2 -11c-2 -1 -5 -1 -10 -1h-475c-7 0 -13 0 -9 12l203 662c4 12 9 11 15 11h59c5 0 11 1 15 -11zM414 70l-138 497h-2l-142 -497h282z" />
    <glyph glyph-name="Dieresis" unicode="&#xf6cb;" horiz-adv-x="501" 
d="M98 804c0 30 26 56 56 56s56 -26 56 -56s-26 -56 -56 -56s-56 26 -56 56zM300 804c0 30 26 56 56 56s56 -26 56 -56s-26 -56 -56 -56s-56 26 -56 56z" />
    <glyph glyph-name="approxequal" unicode="&#x2248;" horiz-adv-x="517" 
d="M452 385l28 -16c3 -2 7 -2 7 -7c0 -3 -1 -7 -7 -16c-27 -42 -61 -85 -132 -85c-38 0 -62 11 -91 28c-28 17 -54 34 -87 34c-23 0 -57 -8 -84 -48c-9 -14 -16 -8 -21 -5l-28 17c-3 2 -7 2 -7 8c0 5 3 10 8 18c15 23 56 83 131 83c45 0 75 -18 102 -33
c37 -21 50 -30 79 -30c19 0 50 4 80 47c10 15 14 9 22 5zM452 237l28 -17c3 -2 7 -2 7 -7c0 -3 -1 -7 -7 -16c-27 -42 -61 -85 -132 -85c-38 0 -62 11 -91 28c-28 17 -54 34 -87 34c-23 0 -57 -8 -84 -48c-9 -14 -16 -8 -21 -5l-28 17c-3 2 -7 2 -7 8c0 5 3 10 8 18
c15 23 56 83 131 83c45 0 75 -18 102 -33c37 -21 50 -30 79 -30c19 0 50 4 80 47c10 15 16 10 22 6z" />
    <glyph glyph-name="cyrBreve" unicode="&#xf6d1;" 
d="M333 860l36 -6c3 0 10 -2 11 -12v-2c-1 -21 -24 -111 -130 -111s-129 90 -130 111v2c1 10 8 12 11 12l36 6c6 1 15 4 17 -8l3 -15c4 -20 15 -55 63 -55s59 35 63 55l3 15c2 12 11 9 17 8z" />
    <glyph glyph-name="cyrbreve" unicode="&#xf6d4;" horiz-adv-x="338" 
d="M247 704l39 -7c6 -1 15 -5 9 -26c-6 -22 -15 -44 -34 -62c-28 -27 -64 -32 -91 -32c-26 0 -65 4 -94 32c-20 19 -28 43 -33 62c-6 21 3 25 9 26l39 7c4 1 12 1 15 -10l3 -10c3 -11 7 -26 19 -38c10 -11 24 -16 41 -16s31 5 41 16c12 12 16 27 19 38l3 10
c3 11 11 11 15 10z" />
    <glyph glyph-name="greaterequal" unicode="&#x2265;" 
d="M478 335v-38c0 -9 -3 -13 -11 -16l-409 -146c-5 -2 -9 -3 -12 -3c-4 0 -7 2 -9 10l-11 37c-1 3 -2 5 -2 7c0 7 6 9 9 10l322 114v2l-322 115c-4 1 -9 3 -9 9c0 2 1 4 2 8l16 46c2 7 4 10 9 10c4 0 8 -1 12 -3l404 -146c8 -3 11 -7 11 -16zM33 88l406 143c5 2 9 3 12 3
c6 0 7 -4 9 -10l13 -37c1 -4 2 -6 2 -7c0 -7 -6 -9 -9 -10l-406 -143c-5 -2 -9 -3 -12 -3c-6 0 -7 4 -9 10l-13 37c-1 4 -2 6 -2 7c0 7 6 9 9 10z" />
    <glyph glyph-name="infinity" unicode="&#x221e;" horiz-adv-x="840" 
d="M420 341l12 12c60 60 105 100 185 100c102 0 173 -66 173 -162c0 -104 -78 -162 -167 -162c-82 0 -134 43 -191 100l-12 12l-12 -12c-57 -57 -109 -100 -191 -100c-89 0 -167 58 -167 162c0 96 71 162 173 162c80 0 125 -40 185 -100zM447 291l31 -30
c45 -44 85 -75 141 -75c62 0 111 44 111 105c0 60 -47 105 -113 105s-109 -46 -139 -75zM393 291l-31 30c-30 29 -73 75 -139 75s-113 -45 -113 -105c0 -61 49 -105 111 -105c56 0 96 31 141 75z" />
    <glyph glyph-name="lessequal" unicode="&#x2264;" 
d="M24 297v38c0 9 3 13 11 16l404 146c4 2 8 3 12 3c5 0 7 -3 9 -10l16 -46c1 -4 2 -6 2 -8c0 -6 -5 -8 -9 -9l-322 -115v-2l322 -114c3 -1 9 -3 9 -10c0 -2 -1 -4 -2 -7l-11 -37c-2 -8 -5 -10 -9 -10c-3 0 -6 1 -12 3l-409 146c-8 3 -11 7 -11 16zM63 231l406 -143
c3 -1 9 -3 9 -10c0 -1 -1 -3 -2 -7l-13 -37c-2 -6 -3 -10 -9 -10c-3 0 -7 1 -12 3l-406 143c-3 1 -9 3 -9 10c0 1 1 3 2 7l13 37c2 6 3 10 9 10c3 0 7 -1 12 -3z" />
    <glyph glyph-name="notequal" unicode="&#x2260;" horiz-adv-x="490" 
d="M477 346v-48c0 -11 -6 -12 -12 -12h-152l-46 -65h198c11 0 12 -6 12 -12v-48c0 -11 -6 -12 -12 -12h-248l-64 -91c-7 -10 -13 -5 -16 -3l-34 23c-10 7 -5 13 -3 16l39 55h-105c-6 0 -12 1 -12 12v48c0 11 6 12 12 12h155l46 65h-201c-6 0 -12 1 -12 12v48c0 6 1 12 12 12
h251l63 90c7 10 13 5 16 3l34 -23c10 -7 5 -13 3 -16l-38 -54h102c11 0 12 -6 12 -12z" />
    <glyph glyph-name="radical" unicode="&#x221a;" horiz-adv-x="483" 
d="M76 423h-47c-11 0 -14 3 -14 14v29c0 11 3 14 14 14h82c27 0 22 -8 25 -20l104 -373h3l167 596c3 12 -2 20 25 20h19c12 0 16 -7 14 -14l-202 -726c-5 -18 -9 -17 -16 -17h-31c-6 0 -10 -1 -15 17z" />
    </font>
</defs>
</svg>
